<?xml version="1.0" encoding="utf-8"?>
<!-- Generator: Adobe Illustrator 16.0.4, SVG Export Plug-In . SVG Version: 6.00 Build 0)  -->
<!DOCTYPE svg PUBLIC "-//W3C//DTD SVG 1.1//EN" "http://www.w3.org/Graphics/SVG/1.1/DTD/svg11.dtd">
<svg version="1.1" id="Layer_1" xmlns="http://www.w3.org/2000/svg" xmlns:xlink="http://www.w3.org/1999/xlink" x="0px" y="0px"
	 width="400px" height="400px" viewBox="0 0 400 400" enable-background="new 0 0 400 400" xml:space="preserve">
<path fill="#FFFFFF" stroke="#000000" stroke-miterlimit="10" d="M414.667,192"/>
<path fill="#FFFFFF" stroke="#000000" stroke-miterlimit="10" d="M-12,270"/>
<path fill="none" stroke="#000000" stroke-miterlimit="10" d="M218-18.667"/>
<path fill="none" stroke="#000000" stroke-miterlimit="10" d="M393.333,309.333"/>
<g>
	<g>
		<path d="M321.333,365.833c3.225,0,3.225-5,0-5S318.108,365.833,321.333,365.833L321.333,365.833z"/>
	</g>
</g>
<g>
	<path fill="none" d="M42.667,83.333"/>
</g>
<g>
	<path fill="none" d="M344,333.333"/>
</g>
<g>
	<path fill="none" d="M419.333,200"/>
</g>
<g>
	<path fill="none" d="M42.667,83.333"/>
</g>
<g>
	<path fill="#FFFFFF" d="M177.333,394.667"/>
</g>
<g>
	<path fill="#FFFFFF" d="M426.667,200"/>
</g>
<g>
	<path fill="#FFFFFF" d="M429.333,192"/>
</g>
<g>
	<path fill="#FFFFFF" d="M250,99"/>
</g>
<g>
	<path fill="#FFFFFF" d="M219.333,6"/>
</g>
<g>
	<path fill="#FFFFFF" d="M429.333,200"/>
</g>
<g>
	<path fill="none" d="M372,65.333"/>
</g>
<g>
	<path fill="none" d="M10.665,264.605"/>
</g>
<g>
	<path fill="none" d="M372,60"/>
</g>
<g>
	<path fill="none" d="M42.667,83.333"/>
</g>
<g>
	<path fill="none" d="M222.667-18.667"/>
</g>
<g>
	<path fill="none" d="M170.667,394.667"/>
</g>
<g>
	<g>
		<path fill="none" stroke="#3D3D3D" stroke-width="20.35" stroke-miterlimit="10" d="M329.179,97.079
			c-17.752,16.79-40.461,49.371-50.512,110.254C265.57,286.667,328.473,368,328.473,368"/>
		<g>
			<polygon fill="#3D3D3D" points="312.952,84.695 353.332,80.665 336.635,117.653 			"/>
		</g>
	</g>
</g>
<g>
	<g>
		<path fill="none" stroke="#3D3D3D" stroke-width="17" stroke-miterlimit="10" d="M333.333,368c0,0-44-51.333-96-39.177
			c-33.733,7.886-50.535,27.094-58.82,42.74"/>
		<g>
			<polygon fill="#3D3D3D" points="164.912,361.258 170.665,394.666 196.724,372.981 			"/>
		</g>
	</g>
</g>
<g>
	<g>
		<path fill="none" stroke="#3D3D3D" stroke-width="14.5" stroke-miterlimit="10" d="M338.516,310.817
			c-6.719-9.021-15.616-16.223-23.413-6.817c-10.534,12.708,10.23,70,10.23,70"/>
		<g>
			<polygon fill="#3D3D3D" points="348.326,299.915 348.976,328.822 323.613,314.934 			"/>
		</g>
	</g>
</g>
<g>
	<g>
		<path fill="none" stroke="#3D3D3D" stroke-width="13" stroke-miterlimit="10" d="M210.781,20.535
			C199.531,50.989,180.981,118.89,200,200c22.667,96.667,139.333,163.333,139.333,163.333"/>
		<g>
			<polygon fill="#3D3D3D" points="197.485,19.184 217.999,3.333 221.472,29.024 			"/>
		</g>
	</g>
</g>
<path fill="none" stroke="#3D3D3D" stroke-width="13" stroke-miterlimit="10" d="M39.333,80.667"/>
<g>
	<g>
		<line fill="none" stroke="#3D3D3D" stroke-width="12.5" stroke-miterlimit="10" x1="51.899" y1="93.47" x2="321.333" y2="368"/>
		<g>
			<polygon fill="#3D3D3D" points="45.558,104.804 39.333,80.667 63.35,87.342 			"/>
		</g>
	</g>
</g>
<path fill="none" stroke="#3D3D3D" stroke-width="12.5" stroke-miterlimit="10" d="M274.334,192"/>
</svg>
