<?xml version="1.0" encoding="utf-8"?>
<!-- Generator: Adobe Illustrator 16.0.4, SVG Export Plug-In . SVG Version: 6.00 Build 0)  -->
<!DOCTYPE svg PUBLIC "-//W3C//DTD SVG 1.1//EN" "http://www.w3.org/Graphics/SVG/1.1/DTD/svg11.dtd">
<svg version="1.1" id="Layer_1" xmlns="http://www.w3.org/2000/svg" xmlns:xlink="http://www.w3.org/1999/xlink" x="0px" y="0px"
	 width="400px" height="400px" viewBox="0 0 400 400" enable-background="new 0 0 400 400" xml:space="preserve">
<path fill="#FFFFFF" stroke="#000000" stroke-miterlimit="10" d="M414.667,192"/>
<path fill="#FFFFFF" stroke="#000000" stroke-miterlimit="10" d="M-12,270"/>
<path fill="none" stroke="#000000" stroke-miterlimit="10" d="M218-18.667"/>
<path fill="none" stroke="#000000" stroke-miterlimit="10" d="M393.333,309.333"/>
<g>
	<g>
		<path d="M6.667,269.167c3.224,0,3.224-5,0-5S3.442,269.167,6.667,269.167L6.667,269.167z"/>
	</g>
</g>
<g>
	<path fill="none" d="M42.667,83.333"/>
</g>
<g>
	<path fill="none" d="M344,333.333"/>
</g>
<g>
	<path fill="none" d="M419.333,200"/>
</g>
<g>
	<path fill="none" d="M42.667,83.333"/>
</g>
<g>
	<path fill="#FFFFFF" d="M177.333,394.667"/>
</g>
<g>
	<path fill="#FFFFFF" d="M426.667,200"/>
</g>
<g>
	<path fill="#FFFFFF" d="M429.333,192"/>
</g>
<g>
	<path fill="#FFFFFF" d="M250,99"/>
</g>
<g>
	<path fill="#FFFFFF" d="M219.333,6"/>
</g>
<g>
	<path fill="#FFFFFF" d="M429.333,200"/>
</g>
<g>
	<path fill="none" d="M372,65.333"/>
</g>
<g>
	<path fill="none" d="M10.665,264.605"/>
</g>
<g>
	<path fill="none" d="M372,60"/>
</g>
<g>
	<path fill="none" d="M42.667,83.333"/>
</g>
<g>
	<path fill="none" d="M222.667-18.667"/>
</g>
<g>
	<path fill="none" d="M170.667,394.667"/>
</g>
<g>
	<g>
		<line fill="none" stroke="#3D3D3D" stroke-width="17.5" stroke-miterlimit="10" x1="336.304" y1="89.782" x2="-8" y2="272.667"/>
		<g>
			<polygon fill="#3D3D3D" points="323.608,76.766 358.483,77.999 339.98,107.588 			"/>
		</g>
	</g>
</g>
<g>
	<g>
		<path fill="none" stroke="#3D3D3D" stroke-width="17.2" stroke-miterlimit="10" d="M0,266.667c0,0,64.116-42.639,77.333-97.333
			c6.471-26.776-8.413-53.312-21.375-70.274"/>
		<g>
			<polygon fill="#3D3D3D" points="71.956,91.75 39.497,80.666 46.124,114.32 			"/>
		</g>
	</g>
</g>
<g>
	<g>
		<path fill="none" stroke="#3D3D3D" stroke-width="16.8" stroke-miterlimit="10" d="M176.21,374.391
			c-0.626-29.765-8.089-78.79-48.21-97.724c-55.52-26.2-128-4-128-4"/>
		<g>
			<polygon fill="#3D3D3D" points="192.84,369.972 175.244,398.479 159.35,368.986 			"/>
		</g>
	</g>
</g>
<g>
	<g>
		<path fill="none" stroke="#3D3D3D" stroke-width="12" stroke-miterlimit="10" d="M217.745,18.018
			c-1.113,27.464-6.285,81.562-29.079,115.715C148,194.667-4,266.667-4,266.667"/>
		<g>
			<polygon fill="#3D3D3D" points="205.576,21.251 217.999,0.799 229.502,21.784 			"/>
		</g>
	</g>
</g>
<g>
	<g>
		<path fill="none" stroke="#3D3D3D" stroke-width="10" stroke-miterlimit="10" d="M327.49,332.906
			C309.17,302.932,257.283,228.494,189.333,220C76.314,205.872-4,281.734-4,281.734"/>
		<g>
			<polygon fill="#3D3D3D" points="334.504,325.392 334.668,345.332 317.315,335.505 			"/>
		</g>
	</g>
</g>
</svg>
