<?xml version="1.0" encoding="utf-8"?>
<!-- Generator: Adobe Illustrator 16.0.4, SVG Export Plug-In . SVG Version: 6.00 Build 0)  -->
<!DOCTYPE svg PUBLIC "-//W3C//DTD SVG 1.1//EN" "http://www.w3.org/Graphics/SVG/1.1/DTD/svg11.dtd">
<svg version="1.1" id="Layer_1" xmlns="http://www.w3.org/2000/svg" xmlns:xlink="http://www.w3.org/1999/xlink" x="0px" y="0px"
	 width="400px" height="400px" viewBox="0 0 400 400" enable-background="new 0 0 400 400" xml:space="preserve">
<path fill="#FFFFFF" stroke="#000000" stroke-miterlimit="10" d="M414.667,192"/>
<path fill="#FFFFFF" stroke="#000000" stroke-miterlimit="10" d="M-12,270"/>
<path fill="none" stroke="#000000" stroke-miterlimit="10" d="M218-18.667"/>
<path fill="none" stroke="#000000" stroke-miterlimit="10" d="M393.333,309.333"/>
<g>
	<g>
		<path d="M353.333,335.833c3.225,0,3.225-5,0-5S350.108,335.833,353.333,335.833L353.333,335.833z"/>
	</g>
</g>
<g>
	<path fill="none" d="M42.667,83.333"/>
</g>
<g>
	<path fill="none" d="M344,333.333"/>
</g>
<g>
	<path fill="none" d="M419.333,200"/>
</g>
<g>
	<path fill="none" d="M42.667,83.333"/>
</g>
<g>
	<path fill="#FFFFFF" d="M177.333,394.667"/>
</g>
<g>
	<path fill="#FFFFFF" d="M426.667,200"/>
</g>
<g>
	<path fill="#FFFFFF" d="M429.333,192"/>
</g>
<g>
	<path fill="#FFFFFF" d="M250,99"/>
</g>
<g>
	<path fill="#FFFFFF" d="M219.333,6"/>
</g>
<g>
	<path fill="#FFFFFF" d="M429.333,200"/>
</g>
<g>
	<path fill="none" d="M372,65.333"/>
</g>
<g>
	<path fill="none" d="M10.665,264.605"/>
</g>
<g>
	<path fill="none" d="M372,60"/>
</g>
<g>
	<path fill="none" d="M42.667,83.333"/>
</g>
<g>
	<path fill="none" d="M222.667-18.667"/>
</g>
<g>
	<path fill="none" d="M170.667,394.667"/>
</g>
<g>
	<g>
		<path fill="none" stroke="#3D3D3D" stroke-width="28" stroke-miterlimit="10" d="M171.875,354.499
			c4.118-35.032,18.208-80.83,63.458-84.499c48.621-3.942,127.334,75.333,127.334,75.333"/>
		<g>
			<polygon fill="#3D3D3D" points="200.712,347.604 170.669,394.667 144.926,345.117 			"/>
		</g>
	</g>
</g>
<g>
	<g>
		<polyline fill="none" stroke="#3D3D3D" stroke-width="12" stroke-miterlimit="10" points="52.883,92.095 200,208.667 
			368.667,340.667 		"/>
		<g>
			<polygon fill="#3D3D3D" points="48.196,103.649 39.384,81.401 63.059,84.892 			"/>
		</g>
	</g>
</g>
<g>
	<g>
		<path fill="none" stroke="#3D3D3D" stroke-width="10" stroke-miterlimit="10" d="M23.705,258.618
			c30.752-13.467,109.391-44.055,164.962-31.951c67.333,14.666,170,118.666,170,118.666"/>
		<g>
			<polygon fill="#3D3D3D" points="30.51,266.559 10.665,264.606 22.278,248.395 			"/>
		</g>
	</g>
</g>
<g>
	<g>
		<path fill="none" stroke="#3D3D3D" stroke-width="10" stroke-miterlimit="10" d="M359.427,278.413
			c-9.641-4.001-22.919-6.577-32.76,2.92C295.236,311.666,344,340.667,344,340.667"/>
		<g>
			<polygon fill="#3D3D3D" points="361.363,268.465 372,285.332 352.073,286.113 			"/>
		</g>
	</g>
</g>
<g>
	<g>
		<path fill="none" stroke="#3D3D3D" stroke-width="10" stroke-miterlimit="10" d="M302.798,352.513
			c-15.017-7.138-35.977-21.065-24.798-39.846c20.666-34.719,80.667,20.666,80.667,20.666"/>
		<g>
			<polygon fill="#3D3D3D" points="304.012,342.029 316.109,357.882 296.332,360.436 			"/>
		</g>
	</g>
</g>
</svg>
