<?xml version="1.0" encoding="utf-8"?>
<!-- Generator: Adobe Illustrator 16.0.4, SVG Export Plug-In . SVG Version: 6.00 Build 0)  -->
<!DOCTYPE svg PUBLIC "-//W3C//DTD SVG 1.1//EN" "http://www.w3.org/Graphics/SVG/1.1/DTD/svg11.dtd">
<svg version="1.1" id="Layer_1" xmlns="http://www.w3.org/2000/svg" xmlns:xlink="http://www.w3.org/1999/xlink" x="0px" y="0px"
	 width="400px" height="400px" viewBox="0 0 400 400" enable-background="new 0 0 400 400" xml:space="preserve">
<path fill="#FFFFFF" stroke="#000000" stroke-miterlimit="10" d="M414.667,192"/>
<path fill="#FFFFFF" stroke="#000000" stroke-miterlimit="10" d="M-12,270"/>
<path fill="none" stroke="#000000" stroke-miterlimit="10" d="M218-18.667"/>
<path fill="none" stroke="#000000" stroke-miterlimit="10" d="M393.333,309.333"/>
<g>
	<g>
		<path d="M219.333,1.167c3.225,0,3.225-5,0-5S216.108,1.167,219.333,1.167L219.333,1.167z"/>
	</g>
</g>
<g>
	<path fill="none" d="M42.667,83.333"/>
</g>
<g>
	<path fill="none" d="M344,333.333"/>
</g>
<g>
	<path fill="none" d="M419.333,200"/>
</g>
<g>
	<path fill="none" d="M42.667,83.333"/>
</g>
<g>
	<path fill="#FFFFFF" d="M177.333,394.667"/>
</g>
<g>
	<path fill="#FFFFFF" d="M426.667,200"/>
</g>
<g>
	<path fill="#FFFFFF" d="M429.333,192"/>
</g>
<g>
	<path fill="#FFFFFF" d="M250,99"/>
</g>
<g>
	<path fill="#FFFFFF" d="M219.333,6"/>
</g>
<g>
	<path fill="#FFFFFF" d="M429.333,200"/>
</g>
<g>
	<path fill="none" d="M372,65.333"/>
</g>
<g>
	<path fill="none" d="M10.665,264.605"/>
</g>
<g>
	<path fill="none" d="M372,60"/>
</g>
<g>
	<path fill="none" d="M42.667,83.333"/>
</g>
<g>
	<g>
		
			<line fill="none" stroke="#3D3D3D" stroke-width="41.7" stroke-miterlimit="10" x1="178.137" y1="335.289" x2="222.667" y2="-18.667"/>
		<g>
			<polygon fill="#3D3D3D" points="220.912,328.406 170.67,394.668 138.399,318.025 			"/>
		</g>
	</g>
</g>
<g>
	<g>
		<path fill="none" stroke="#3D3D3D" stroke-width="28.25" stroke-miterlimit="10" d="M47.542,242.846
			c30.711-21.048,74.706-55.217,99.792-92.846C183.748,95.379,218-18.667,218-18.667"/>
		<g>
			<polygon fill="#3D3D3D" points="69.597,261.762 13.335,264.607 38.998,214.455 			"/>
		</g>
	</g>
</g>
<g>
	<g>
		<path fill="none" stroke="#3D3D3D" stroke-width="21.25" stroke-miterlimit="10" d="M331.944,96.75
			c-14.528,6.838-34.71,9.434-57.944-6.75c-39.858-27.764-42.667-105.333-42.667-105.333"/>
		<g>
			<polygon fill="#3D3D3D" points="313.85,82.364 355.999,77.999 338.708,116.688 			"/>
		</g>
	</g>
</g>
<g>
	<g>
		<path fill="none" stroke="#3D3D3D" stroke-width="16.75" stroke-miterlimit="10" d="M65.354,81.091
			c22.813,1.667,57.308,0.69,81.98-15.758c39.927-26.618,66-78,66-78"/>
		<g>
			<polygon fill="#3D3D3D" points="68.243,98.034 41.515,78.001 72.227,64.867 			"/>
		</g>
	</g>
</g>
<g>
	<g>
		<path fill="none" stroke="#3D3D3D" stroke-width="5" stroke-miterlimit="10" d="M327.479,337.143
			c-18.896-22.438-66.538-86.01-82.812-173.476C231.333,92,236-18.667,236-18.667"/>
		<g>
			<polygon fill="#3D3D3D" points="332.165,329.856 335.334,345.999 319.768,340.673 			"/>
		</g>
	</g>
</g>
</svg>
