<?xml version="1.0" encoding="utf-8"?>
<!-- Generator: Adobe Illustrator 16.0.4, SVG Export Plug-In . SVG Version: 6.00 Build 0)  -->
<!DOCTYPE svg PUBLIC "-//W3C//DTD SVG 1.1//EN" "http://www.w3.org/Graphics/SVG/1.1/DTD/svg11.dtd">
<svg version="1.1" id="Layer_1" xmlns="http://www.w3.org/2000/svg" xmlns:xlink="http://www.w3.org/1999/xlink" x="0px" y="0px"
	 width="400px" height="400px" viewBox="0 0 400 400" enable-background="new 0 0 400 400" xml:space="preserve">
<path fill="#FFFFFF" stroke="#000000" stroke-miterlimit="10" d="M414.667,192"/>
<path fill="#FFFFFF" stroke="#000000" stroke-miterlimit="10" d="M-12,270"/>
<path fill="none" stroke="#000000" stroke-miterlimit="10" d="M218-18.667"/>
<path fill="none" stroke="#000000" stroke-miterlimit="10" d="M393.333,309.333"/>
<g>
	<g>
		<path d="M382,291.833c3.225,0,3.225-5,0-5S378.775,291.833,382,291.833L382,291.833z"/>
	</g>
</g>
<g>
	<g>
		<path fill="none" stroke="#424140" stroke-width="70" stroke-miterlimit="10" d="M223.821,84.248
			c4.347,27.976,12.48,57.821,27.512,79.752c40.667,59.333,142,125.333,142,125.333"/>
		<g>
			<polygon fill="#424140" points="170.593,104.476 219.327,4 281.986,96.442 			"/>
		</g>
	</g>
</g>
<g>
	<g>
		<path fill="none" stroke="#424140" stroke-width="62" stroke-linejoin="bevel" d="M330.892,136.125
			c-0.728,8.878-0.886,19.008-0.225,30.542c1.045,18.226,6.979,38.749,14.599,58.286C361.706,267.104,386,304.667,386,304.667"/>
		<g>
			<polygon fill="#424140" points="288.361,135.175 353.329,77.999 370.37,162.854 			"/>
		</g>
	</g>
</g>
<g>
	<g>
		<path fill="none" stroke="#424140" stroke-width="22" stroke-miterlimit="10" d="M171.562,363.106
			c3.571-33.148,17.129-83.02,65.105-101.773C310,232.667,386,302,386,302"/>
		<g>
			<polygon fill="#424140" points="194.156,357.613 170.668,394.667 150.319,355.8 			"/>
		</g>
	</g>
</g>
<g>
	<g>
		<path fill="none" stroke="#424140" stroke-width="15" stroke-miterlimit="10" d="M61.381,97.839
			c30.138,23.162,90.135,68.432,130.619,93.494C267.53,238.09,378.667,312,378.667,312"/>
		<g>
			<polygon fill="#424140" points="55.321,113.707 42.666,83.335 75.298,87.558 			"/>
		</g>
	</g>
</g>
<g>
	<g>
		<path fill="none" stroke="#424140" stroke-width="13" stroke-miterlimit="10" d="M326.883,322.003
			c-18.555-13.592-43.286-36.483-25.55-52.003c22.867-20.009,92,31.333,92,31.333"/>
		<g>
			<polygon fill="#424140" points="331.497,307.703 344.001,333.332 315.553,331.35 			"/>
		</g>
	</g>
</g>
</svg>
