<?xml version="1.0" encoding="utf-8"?>
<!-- Generator: Adobe Illustrator 16.0.4, SVG Export Plug-In . SVG Version: 6.00 Build 0)  -->
<!DOCTYPE svg PUBLIC "-//W3C//DTD SVG 1.1//EN" "http://www.w3.org/Graphics/SVG/1.1/DTD/svg11.dtd">
<svg version="1.1" id="Layer_1" xmlns="http://www.w3.org/2000/svg" xmlns:xlink="http://www.w3.org/1999/xlink" x="0px" y="0px"
	 width="400px" height="400px" viewBox="0 0 400 400" enable-background="new 0 0 400 400" xml:space="preserve">
<path fill="#FFFFFF" stroke="#000000" stroke-miterlimit="10" d="M414.667,192"/>
<path fill="#FFFFFF" stroke="#000000" stroke-miterlimit="10" d="M-12,270"/>
<path fill="none" stroke="#000000" stroke-miterlimit="10" d="M218-18.667"/>
<path fill="none" stroke="#000000" stroke-miterlimit="10" d="M393.333,309.333"/>
<g>
	<g>
		<path d="M362.667,77.167c3.225,0,3.225-5,0-5S359.442,77.167,362.667,77.167L362.667,77.167z"/>
	</g>
</g>
<g>
	<path fill="none" d="M42.667,83.333"/>
</g>
<g>
	<path fill="none" d="M344,333.333"/>
</g>
<g>
	<path fill="none" d="M419.333,200"/>
</g>
<g>
	<path fill="none" d="M42.667,83.333"/>
</g>
<g>
	<path fill="#FFFFFF" d="M177.333,394.667"/>
</g>
<g>
	<path fill="#FFFFFF" d="M426.667,200"/>
</g>
<g>
	<path fill="#FFFFFF" d="M429.333,192"/>
</g>
<g>
	<path fill="#FFFFFF" d="M250,99"/>
</g>
<g>
	<path fill="#FFFFFF" d="M219.333,6"/>
</g>
<g>
	<path fill="#FFFFFF" d="M429.333,200"/>
</g>
<g>
	<g>
		<line fill="none" stroke="#424140" stroke-width="25" stroke-miterlimit="10" x1="42.083" y1="247.279" x2="372" y2="65.333"/>
		<g>
			<polygon fill="#424140" points="60.509,265.586 10.666,264.607 36.432,221.927 			"/>
		</g>
	</g>
</g>
<g>
	<g>
		<path fill="none" stroke="#424140" stroke-width="17" stroke-miterlimit="10" d="M168.781,370.34
			c-1.421-35.812,1.047-104.514,33.886-160.34c36.094-61.358,174.666-144.667,174.666-144.667"/>
		<g>
			<polygon fill="#424140" points="185.61,364.237 170.668,394.667 151.783,366.513 			"/>
		</g>
	</g>
</g>
<g>
	<g>
		<path fill="none" stroke="#424140" stroke-width="14" stroke-miterlimit="10" d="M61.526,90.266
			c28.623,9.428,86.053,24.204,145.807,15.734C263.579,98.028,372,60,372,60"/>
		<g>
			<polygon fill="#424140" points="60.742,104.61 42.666,83.335 70.13,78.315 			"/>
		</g>
	</g>
</g>
<g>
	<g>
		<path fill="none" stroke="#424140" stroke-width="11" stroke-miterlimit="10" d="M217.829,21.719
			C218.522,34.869,224.527,52.626,250,60c50.667,14.667,127.333,0,127.333,0"/>
		<g>
			<polygon fill="#424140" points="207.02,24.154 219.332,6 228.9,25.74 			"/>
		</g>
	</g>
</g>
<g>
	<path fill="#FFFFFF" d="M334.667,346c0,0-73.334-56.667-54.667-151.333C293.128,128.092,377.333,62,377.333,62"/>
	<g>
		<path fill="none" stroke="#424140" stroke-width="11" stroke-miterlimit="10" d="M323.104,335.256
			C303.25,314.63,266.093,265.194,280,194.667C293.128,128.092,377.333,62,377.333,62"/>
		<g>
			<polygon fill="#424140" points="328.439,324.967 334.668,345.999 313.337,340.879 			"/>
		</g>
	</g>
</g>
</svg>
