<?xml version="1.0" encoding="utf-8"?>
<!-- Generator: Adobe Illustrator 16.0.4, SVG Export Plug-In . SVG Version: 6.00 Build 0)  -->
<!DOCTYPE svg PUBLIC "-//W3C//DTD SVG 1.1//EN" "http://www.w3.org/Graphics/SVG/1.1/DTD/svg11.dtd">
<svg version="1.1" id="Layer_1" xmlns="http://www.w3.org/2000/svg" xmlns:xlink="http://www.w3.org/1999/xlink" x="0px" y="0px"
	 width="400px" height="400px" viewBox="0 0 400 400" enable-background="new 0 0 400 400" xml:space="preserve">
<path fill="#FFFFFF" stroke="#000000" stroke-miterlimit="10" d="M414.667,192"/>
<path fill="#FFFFFF" stroke="#000000" stroke-miterlimit="10" d="M-12,270"/>
<path fill="none" stroke="#000000" stroke-miterlimit="10" d="M218-18.667"/>
<path fill="none" stroke="#000000" stroke-miterlimit="10" d="M393.333,309.333"/>
<g>
	<g>
		<path d="M35.333,80.5c3.224,0,3.224-5,0-5S32.109,80.5,35.333,80.5L35.333,80.5z"/>
	</g>
</g>
<g>
	<path fill="none" d="M42.667,83.333"/>
</g>
<g>
	<path fill="none" d="M344,333.333"/>
</g>
<g>
	<path fill="none" d="M419.333,200"/>
</g>
<g>
	<path fill="none" d="M42.667,83.333"/>
</g>
<g>
	<path fill="#FFFFFF" d="M177.333,394.667"/>
</g>
<g>
	<path fill="#FFFFFF" d="M426.667,200"/>
</g>
<g>
	<path fill="#FFFFFF" d="M429.333,192"/>
</g>
<g>
	<path fill="#FFFFFF" d="M250,99"/>
</g>
<g>
	<path fill="#FFFFFF" d="M219.333,6"/>
</g>
<g>
	<path fill="#FFFFFF" d="M429.333,200"/>
</g>
<g>
	<path fill="none" d="M372,65.333"/>
</g>
<g>
	<path fill="none" d="M10.665,264.605"/>
</g>
<g>
	<path fill="none" d="M372,60"/>
</g>
<g>
	<path fill="none" d="M42.667,83.333"/>
</g>
<g>
	<path fill="none" d="M222.667-18.667"/>
</g>
<g>
	<path fill="none" d="M170.667,394.667"/>
</g>
<g>
	<g>
		<path fill="none" stroke="#3D3D3D" stroke-width="33.5" stroke-miterlimit="10" d="M319.124,105.63
			c-29.163,15.846-73.923,32.161-132.218,29.704C92,131.333,10.665,52,10.665,52"/>
		<g>
			<polygon fill="#3D3D3D" points="291.841,82.726 358.477,77.997 329.259,138.075 			"/>
		</g>
	</g>
</g>
<g>
	<g>
		<path fill="none" stroke="#3D3D3D" stroke-width="19.25" stroke-miterlimit="10" d="M39.632,251.456
			c17.625-12.303,38.38-33.796,38.368-66.79C77.971,105.898,24.667,69.333,24.667,69.333"/>
		<g>
			<polygon fill="#3D3D3D" points="53.72,264.938 15.334,264.607 34.811,231.526 			"/>
		</g>
	</g>
</g>
<g>
	<g>
		<path fill="none" stroke="#3D3D3D" stroke-width="16" stroke-miterlimit="10" d="M169.141,371.758
			c-2.821-35.033-10.253-102.919-27.807-151.091C112.667,142,24.667,65.333,24.667,65.333"/>
		<g>
			<polygon fill="#3D3D3D" points="184.637,365.981 170.668,394.667 152.807,368.227 			"/>
		</g>
	</g>
</g>
<g>
	<g>
		<path fill="none" stroke="#3D3D3D" stroke-width="12" stroke-miterlimit="10" d="M208.165,14.934
			c-10.249,12.211-29.127,29.288-59.499,38.399c-53.333,16-133.333,4-133.333,4"/>
		<g>
			<polygon fill="#3D3D3D" points="196.202,10.673 217.999,0.799 215.654,24.614 			"/>
		</g>
	</g>
</g>
<g>
	<g>
		<line fill="none" stroke="#3D3D3D" stroke-width="10" stroke-miterlimit="10" x1="323.22" y1="337.032" x2="15.333" y2="57.333"/>
		<g>
			<polygon fill="#3D3D3D" points="328.219,326.755 334.905,347.646 313.468,342.993 			"/>
		</g>
	</g>
</g>
</svg>
