<?xml version="1.0" encoding="utf-8"?>
<!-- Generator: Adobe Illustrator 16.0.4, SVG Export Plug-In . SVG Version: 6.00 Build 0)  -->
<!DOCTYPE svg PUBLIC "-//W3C//DTD SVG 1.1//EN" "http://www.w3.org/Graphics/SVG/1.1/DTD/svg11.dtd">
<svg version="1.1" xmlns="http://www.w3.org/2000/svg" xmlns:xlink="http://www.w3.org/1999/xlink" x="0px" y="0px" width="295px"
	 height="385px" viewBox="0 0 295 385" enable-background="new 0 0 295 385" xml:space="preserve">
<g id="Layer_1">
	<rect x="0" fill="none" stroke="#000000" stroke-miterlimit="10" width="295" height="385"/>
	<circle fill="#FFFFFF" stroke="#000000" stroke-miterlimit="10" cx="147.5" cy="224.037" r="140.5"/>
	<g>
		<g>
			<path d="M123.453,382.274c3.224,0,3.224-5,0-5S120.229,382.274,123.453,382.274L123.453,382.274z"/>
		</g>
	</g>
	<g>
		<g>
			<path d="M241.852,367.037c3.225,0,3.225-5,0-5S238.627,367.037,241.852,367.037L241.852,367.037z"/>
		</g>
	</g>
	<g>
		<g>
			<path d="M266.378,349.255c3.225,0,3.225-5,0-5S263.153,349.255,266.378,349.255L266.378,349.255z"/>
		</g>
	</g>
	<g>
		<g>
			<path d="M289.02,328.973c3.225,0,3.225-5,0-5S285.795,328.973,289.02,328.973L289.02,328.973z"/>
		</g>
	</g>
	<g>
		<g>
			<path d="M313.076,291.236c3.225,0,3.225-5,0-5S309.852,291.236,313.076,291.236L313.076,291.236z"/>
		</g>
	</g>
	<g>
		<g>
			<path d="M333.359,211.52c3.225,0,3.225-5,0-5S330.135,211.52,333.359,211.52L333.359,211.52z"/>
		</g>
	</g>
	<g>
		<g>
			<path d="M289.491,101.142c3.225,0,3.225-5,0-5S286.267,101.142,289.491,101.142L289.491,101.142z"/>
		</g>
	</g>
	<g>
		<g>
			<path d="M162.133,34.161c3.225,0,3.225-5,0-5S158.908,34.161,162.133,34.161L162.133,34.161z"/>
		</g>
	</g>
	<g>
		<g>
			<path d="M7.416,101.614c3.224,0,3.224-5,0-5S4.191,101.614,7.416,101.614L7.416,101.614z"/>
		</g>
	</g>
	<g>
		<g>
			<path d="M-23.245,272.84c3.224,0,3.224-5,0-5S-26.469,272.84-23.245,272.84L-23.245,272.84z"/>
		</g>
	</g>
</g>
<g id="Layer_2">
	<g>
		<g>
			<path fill="none" stroke="#000000" stroke-width="10" stroke-miterlimit="10" d="M156.201,103.625
				c-0.526,31.259-0.567,90.417,5.865,114.117c10.03,36.95,71.765,134.203,71.765,134.203"/>
			<g>
				<polygon points="142.248,107.435 156.684,83.539 170.163,107.988 				"/>
			</g>
		</g>
	</g>
	<g>
		<g>
			<path fill="none" stroke="#000000" stroke-width="18" stroke-miterlimit="10" d="M227.065,156.008
				c-17.23,18.75-40.229,49.083-43.705,80.371c-3.482,31.334,50.471,115.565,50.471,115.565"/>
			<g>
				<polygon points="210.017,146.726 246.435,137.021 236.634,173.415 				"/>
			</g>
		</g>
	</g>
	<g>
		<g>
			<path fill="none" stroke="#000000" stroke-width="8" stroke-miterlimit="10" d="M51.028,146.665
				c27.367,18.787,86.299,60.206,105.604,81.427c24.426,26.851,77.198,123.853,77.198,123.853"/>
			<g>
				<polygon points="47.169,158.546 36.786,136.987 60.649,138.772 				"/>
			</g>
		</g>
	</g>
	<g>
		<g>
			<path fill="none" stroke="#000000" stroke-width="14" stroke-miterlimit="10" d="M125.288,346.345
				c13.029-29.304,37.595-77.26,54.77-66.57c20.494,12.755,53.773,72.17,53.773,72.17"/>
			<g>
				<polygon points="142.031,348.363 116.379,367.67 112.482,335.8 				"/>
			</g>
		</g>
	</g>
	<g>
		<g>
			<path fill="none" stroke="#000000" stroke-width="10" stroke-miterlimit="10" d="M233.831,353.34
				c0,0-27.137-52.035-16.038-63.086c4.769-4.748,19.821,3.845,30.42,10.94"/>
			<g>
				<polygon points="240.429,307.413 259.293,309.146 251.363,291.94 				"/>
			</g>
		</g>
	</g>
</g>
</svg>
