<?xml version="1.0" encoding="utf-8"?>
<!-- Generator: Adobe Illustrator 16.0.4, SVG Export Plug-In . SVG Version: 6.00 Build 0)  -->
<!DOCTYPE svg PUBLIC "-//W3C//DTD SVG 1.1//EN" "http://www.w3.org/Graphics/SVG/1.1/DTD/svg11.dtd">
<svg version="1.1" xmlns="http://www.w3.org/2000/svg" xmlns:xlink="http://www.w3.org/1999/xlink" x="0px" y="0px" width="370px"
	 height="480px" viewBox="0 0 370 480" enable-background="new 0 0 370 480" xml:space="preserve">
<g id="Layer_1" display="none">
	
		<ellipse display="inline" fill="#FFFFFF" stroke="#000000" stroke-width="0.25" stroke-miterlimit="10" cx="185" cy="294.833" rx="185" ry="185.167"/>
	<g display="inline">
		<g>
			<path d="M358.001,424.833c3.225,0,3.225-5,0-5S354.776,424.833,358.001,424.833L358.001,424.833z"/>
		</g>
	</g>
	<g display="inline">
		<g>
			<path d="M308.668,466.167c3.225,0,3.225-5,0-5S305.443,466.167,308.668,466.167L308.668,466.167z"/>
		</g>
	</g>
	<g display="inline">
		<g>
			<path d="M333.335,439.5c3.225,0,3.225-5,0-5S330.11,439.5,333.335,439.5L333.335,439.5z"/>
		</g>
	</g>
	<g display="inline">
		<g>
			<path d="M388.668,362.833c3.225,0,3.225-5,0-5S385.443,362.833,388.668,362.833L388.668,362.833z"/>
		</g>
	</g>
	<g display="inline">
		<g>
			<path d="M406.668,266.833c3.225,0,3.225-5,0-5S403.443,266.833,406.668,266.833L406.668,266.833z"/>
		</g>
	</g>
	<g display="inline">
		<g>
			<path d="M339.335,123.5c3.225,0,3.225-5,0-5S336.11,123.5,339.335,123.5L339.335,123.5z"/>
		</g>
	</g>
	<g display="inline">
		<g>
			<path d="M187.335,65.5c3.225,0,3.225-5,0-5C184.111,60.5,184.111,65.5,187.335,65.5L187.335,65.5z"/>
		</g>
	</g>
	<g display="inline">
		<g>
			<path d="M2.668,137.5c3.224,0,3.224-5,0-5S-0.556,137.5,2.668,137.5L2.668,137.5z"/>
		</g>
	</g>
	<g display="inline">
		<g>
			<path d="M-27.332,362.167c3.224,0,3.224-5,0-5S-30.556,362.167-27.332,362.167L-27.332,362.167z"/>
		</g>
	</g>
	<g display="inline">
		<g>
			<path d="M152.668,518.833c3.224,0,3.224-5,0-5S149.444,518.833,152.668,518.833L152.668,518.833z"/>
		</g>
	</g>
</g>
<g id="Layer_2">
	<g>
		<path d="M151.783,482.993c0,0,0.06-0.202,0.175-0.593c0.118-0.362,0.292-0.898,0.519-1.6c0.464-1.365,1.174-3.318,2.185-5.738
			c2.02-4.834,5.246-11.566,10.12-19.021c4.86-7.441,11.423-15.598,19.772-22.918c4.165-3.66,8.763-7.103,13.697-10.156
			c4.933-3.057,10.201-5.72,15.64-7.912l2.048-0.799l1.023-0.397l0.256-0.1l0.197-0.07l0.127-0.042l0.51-0.167
			c1.358-0.445,2.716-0.89,4.07-1.333c1.44-0.376,2.879-0.752,4.312-1.126c1.434-0.342,2.87-0.567,4.294-0.852
			c5.728-0.959,11.509-1.139,16.998-0.455c5.496,0.657,10.652,2.258,15.214,4.358c4.569,2.107,8.547,4.732,11.919,7.473
			c3.379,2.739,6.145,5.612,8.421,8.281c2.275,2.675,4.055,5.163,5.429,7.266c2.74,4.214,3.886,6.851,3.886,6.851
			s-1.29-2.572-4.239-6.606c-1.478-2.012-3.375-4.379-5.761-6.893c-2.388-2.507-5.256-5.177-8.69-7.662
			c-3.426-2.486-7.407-4.806-11.878-6.577c-4.465-1.767-9.415-3.008-14.611-3.342c-5.191-0.358-10.587,0.106-15.911,1.299
			c-1.32,0.343-2.669,0.628-3.975,1.017c-1.291,0.411-2.585,0.823-3.883,1.236c-1.328,0.517-2.658,1.034-3.99,1.553l-0.5,0.194
			l-0.125,0.049l-0.062,0.024c-0.036,0.014,0.091-0.032,0.009,0l-0.238,0.108l-0.953,0.434l-1.906,0.866
			c-5.055,2.366-9.891,5.155-14.371,8.282c-4.481,3.124-8.606,6.583-12.309,10.213c-7.42,7.261-13.105,15.182-17.238,22.334
			c-4.145,7.163-6.781,13.551-8.375,18.041c-0.797,2.248-1.335,4.028-1.669,5.223c-0.155,0.585-0.273,1.033-0.354,1.336
			c-0.065,0.277-0.099,0.421-0.099,0.421L151.783,482.993z"/>
	</g>
	<g>
		<path d="M310.908,158.697c0,0-0.175,0.209-0.514,0.615c-0.348,0.432-0.864,1.072-1.537,1.907
			c-1.349,1.705-3.315,4.261-5.728,7.605c-4.819,6.687-11.441,16.533-18.332,28.978c-6.882,12.435-14.036,27.494-19.647,44.363
			c-5.619,16.841-9.618,35.547-10.268,54.502l-0.076,1.775l-0.019,0.444l-0.01,0.222c-0.004-0.176,0,0.017-0.001,0.007l0.002,0.113
			l0.01,0.906l0.039,3.625c0.026,2.416,0.053,4.829,0.079,7.237c-0.032,2.432,0.176,4.765,0.342,7.11
			c0.164,2.348,0.329,4.688,0.492,7.02c0.109,2.334,0.436,4.662,0.728,6.979c0.289,2.318,0.578,4.625,0.864,6.918
			c0.238,2.303,0.681,4.559,1.072,6.808c0.396,2.249,0.789,4.483,1.179,6.698c0.345,2.226,0.889,4.391,1.358,6.552
			c0.482,2.159,0.96,4.298,1.432,6.413c0.432,2.128,1.056,4.182,1.585,6.234c0.547,2.05,1.088,4.074,1.622,6.071
			c1.104,3.984,2.372,7.805,3.495,11.535c1.194,3.706,2.486,7.242,3.653,10.666c1.237,3.396,2.516,6.617,3.684,9.703
			c1.232,3.058,2.461,5.935,3.585,8.654c1.2,2.686,2.323,5.199,3.362,7.523c1.098,2.299,2.105,4.41,3.016,6.317
			c0.955,1.886,1.808,3.57,2.549,5.035c0.772,1.449,1.431,2.683,1.963,3.682c1.098,1.982,1.707,3.027,1.707,3.027
			s-0.656-1.016-1.843-2.948c-0.578-0.976-1.292-2.18-2.13-3.594c-0.809-1.433-1.738-3.08-2.779-4.924
			c-0.998-1.869-2.104-3.938-3.307-6.19c-1.146-2.283-2.387-4.752-3.712-7.391c-1.25-2.674-2.614-5.507-3.991-8.521
			c-1.312-3.043-2.744-6.224-4.143-9.583c-1.329-3.386-2.79-6.889-4.163-10.566c-1.3-3.704-2.753-7.501-4.05-11.471
			c-0.63-1.992-1.269-4.011-1.916-6.055c-0.628-2.051-1.353-4.102-1.887-6.231c-0.575-2.12-1.156-4.263-1.743-6.426
			c-0.575-2.167-1.225-4.34-1.678-6.579c-0.498-2.23-0.999-4.479-1.505-6.744c-0.5-2.268-1.053-4.543-1.402-6.873
			c-0.397-2.321-0.798-4.657-1.2-7.005c-0.403-2.349-0.842-4.702-1.068-7.12c-0.278-2.408-0.557-4.825-0.837-7.249
			c-0.279-2.427-0.6-4.875-0.675-7.265c-0.135-2.404-0.271-4.814-0.406-7.227l-0.203-3.619l-0.052-0.905l-0.014-0.333l-0.001-0.231
			l-0.002-0.462l-0.006-1.851c-0.101-9.871,0.654-19.747,2.082-29.359c1.425-9.614,3.518-18.966,6.037-27.866
			c5.044-17.813,11.766-33.788,18.332-47.036c6.578-13.259,13.004-23.822,17.753-31.083c2.378-3.631,4.341-6.439,5.721-8.355
			c0.706-0.963,1.248-1.701,1.613-2.199c0.39-0.511,0.591-0.775,0.591-0.775L310.908,158.697z"/>
	</g>
	<g>
		<path d="M332.626,406.181c0,0-0.181-0.343-0.519-0.984c-0.361-0.659-0.913-1.634-1.67-2.85c-1.52-2.412-3.832-5.859-7.207-9.308
			c-1.688-1.71-3.653-3.405-5.912-4.784c-1.141-0.642-2.333-1.286-3.607-1.68c-0.629-0.256-1.285-0.351-1.941-0.532
			c-0.661-0.064-1.333-0.236-2.012-0.208c-1.363-0.097-2.742,0.161-4.125,0.518c-0.676,0.253-1.385,0.425-2.044,0.785l-1.016,0.478
			l-0.978,0.6c-0.672,0.368-1.285,0.863-1.916,1.336l-0.475,0.354l-0.06,0.045l-0.029,0.022c-0.052,0.045,0.038-0.038,0.018-0.02
			l-0.12,0.106l-0.241,0.212l-0.963,0.852c-1.35,1.132-2.413,2.284-3.573,3.451c-2.234,2.444-4.187,5.139-5.707,8.016
			c-1.522,2.874-2.592,5.933-3.175,8.998c-1.191,6.151-0.398,12.181,1.024,17.06c1.428,4.909,3.404,8.758,4.909,11.35
			c1.525,2.591,2.599,3.946,2.599,3.946s-1.157-1.282-2.853-3.786c-1.676-2.507-3.916-6.249-5.695-11.172
			c-0.883-2.459-1.638-5.213-2.067-8.207c-0.43-2.99-0.524-6.224-0.104-9.534c0.412-3.311,1.353-6.685,2.802-9.898
			c1.445-3.216,3.375-6.271,5.616-9.057c1.176-1.359,2.386-2.8,3.599-3.951l0.907-0.91l0.227-0.228l0.113-0.113l0.176-0.156
			l0.522-0.449c0.697-0.598,1.378-1.212,2.161-1.721l1.14-0.796l1.227-0.684c0.797-0.489,1.699-0.802,2.562-1.172
			c1.782-0.603,3.653-1.054,5.527-1.06c0.938-0.08,1.854,0.06,2.771,0.112c0.889,0.165,1.801,0.268,2.64,0.536
			c1.729,0.426,3.283,1.131,4.762,1.851c2.903,1.524,5.321,3.375,7.38,5.208c4.104,3.696,6.848,7.299,8.702,9.857
			c0.92,1.287,1.604,2.331,2.065,3.061c0.452,0.712,0.726,1.188,0.711,1.162L332.626,406.181z"/>
	</g>
	<g>
		<path d="M187,109.659c0,0,0.007,1.389,0.019,3.993c0.028,2.605,0.089,6.433,0.223,11.304c0.276,9.742,0.854,23.666,2.154,40.334
			c0.65,8.333,1.493,17.35,2.572,26.867c0.494,4.764,1.212,9.63,1.83,14.62c0.647,4.986,1.509,10.049,2.275,15.216
			c0.843,5.153,1.854,10.365,2.792,15.657c1.116,5.253,2.213,10.583,3.439,15.923c0.673,2.655,1.349,5.321,2.025,7.996
			c0.339,1.337,0.679,2.676,1.018,4.018c0.321,1.346,0.776,2.654,1.158,3.986c1.621,5.316,3.103,10.637,5.04,15.891
			c3.575,10.597,7.555,20.987,11.685,31.157c1.062,2.531,2.119,5.053,3.172,7.561c1.058,2.507,2.072,5.018,3.21,7.457
			c2.236,4.895,4.355,9.772,6.604,14.494c2.286,4.704,4.471,9.362,6.723,13.865c2.299,4.479,4.506,8.884,6.73,13.133
			c2.274,4.222,4.487,8.329,6.627,12.303c2.215,3.932,4.355,7.731,6.41,11.379c2.119,3.61,4.149,7.07,6.081,10.361
			c1.984,3.26,3.868,6.352,5.638,9.257c1.813,2.878,3.511,5.572,5.081,8.062c1.604,2.469,3.079,4.735,4.411,6.783
			c1.358,2.03,2.571,3.843,3.627,5.42c1.075,1.563,1.989,2.895,2.73,3.973c1.513,2.136,2.319,3.275,2.319,3.275
			s-0.819-1.13-2.356-3.25c-0.753-1.07-1.683-2.39-2.775-3.942c-1.073-1.565-2.307-3.364-3.688-5.38
			c-1.354-2.033-2.854-4.285-4.488-6.736c-1.598-2.474-3.326-5.149-5.173-8.009c-1.804-2.888-3.723-5.96-5.745-9.198
			c-1.97-3.272-4.04-6.712-6.201-10.302c-2.098-3.628-4.282-7.406-6.544-11.317c-2.187-3.953-4.447-8.041-6.771-12.242
			c-2.275-4.229-4.534-8.615-6.887-13.076c-2.307-4.484-4.547-9.125-6.89-13.812c-2.307-4.705-4.484-9.569-6.781-14.45
			c-1.167-2.432-2.213-4.937-3.301-7.438c-1.083-2.503-2.172-5.02-3.265-7.545c-4.257-10.152-8.385-20.585-12.067-31.115
			c-1.988-5.208-3.572-10.635-5.253-15.941c-0.4-1.337-0.874-2.652-1.212-4.003c-0.356-1.345-0.713-2.688-1.069-4.03
			c-0.712-2.684-1.422-5.359-2.129-8.025c-1.294-5.358-2.457-10.703-3.638-15.976c-1.004-5.307-2.078-10.537-2.983-15.706
			c-0.828-5.181-1.75-10.262-2.457-15.262c-0.677-5.004-1.453-9.887-2.003-14.665c-1.19-9.545-2.139-18.59-2.885-26.951
			c-1.493-16.723-2.23-30.698-2.617-40.488c-0.189-4.896-0.293-8.745-0.352-11.375c-0.042-2.631-0.063-4.034-0.063-4.034
			L187,109.659z"/>
	</g>
	<g>
		<path d="M42.77,176.257c0,0,1.152,0.86,3.312,2.474c2.149,1.641,5.3,4.048,9.311,7.112c3.962,3.113,8.774,6.894,14.293,11.23
			c5.443,4.431,11.648,9.349,18.297,14.861c3.308,2.775,6.754,5.666,10.321,8.658c3.552,3.009,7.293,6.038,10.983,9.336
			c3.721,3.261,7.543,6.611,11.451,10.035c3.906,3.426,7.927,6.889,11.854,10.595c3.965,3.662,7.997,7.386,12.077,11.155
			c2.04,1.884,4.093,3.78,6.155,5.686c2.039,1.932,4.023,3.941,6.05,5.921c4.038,3.979,8.107,7.987,12.193,12.012
			c2.04,2.024,4.094,4.002,6.132,6.074l5.928,6.262c1.958,2.107,3.994,4.131,5.888,6.307c1.92,2.146,3.837,4.29,5.751,6.431
			c3.876,4.24,7.513,8.643,11.205,12.941c7.323,8.649,14.33,17.325,20.99,25.812c6.661,8.486,12.974,16.787,18.863,24.729
			c2.977,3.947,5.78,7.854,8.525,11.608c2.755,3.748,5.351,7.416,7.856,10.928c2.517,3.504,4.886,6.892,7.136,10.115
			c2.263,3.216,4.385,6.282,6.363,9.175c3.982,5.769,7.394,10.839,10.192,15.021c5.596,8.365,8.695,13.209,8.695,13.209
			s-3.152-4.811-8.837-13.113c-2.845-4.15-6.31-9.183-10.354-14.905c-2.009-2.87-4.164-5.913-6.461-9.103
			c-2.284-3.198-4.689-6.559-7.242-10.033c-2.543-3.482-5.178-7.12-7.971-10.836c-2.784-3.723-5.629-7.597-8.646-11.509
			c-5.972-7.871-12.368-16.096-19.113-24.499c-6.744-8.403-13.834-16.99-21.235-25.541c-3.73-4.248-7.411-8.606-11.312-12.781
			c-1.927-2.109-3.858-4.223-5.792-6.337c-0.956-1.066-1.939-2.11-2.949-3.136l-2.999-3.099l-5.996-6.197
			c-2.013-2.001-4.115-3.983-6.163-5.971c-4.119-3.971-8.222-7.925-12.292-11.849c-2.043-1.953-4.043-3.935-6.097-5.84
			c-2.079-1.879-4.147-3.748-6.203-5.605c-4.111-3.716-8.173-7.387-12.168-10.996c-3.956-3.653-8.007-7.066-11.94-10.441
			c-3.935-3.373-7.784-6.673-11.531-9.886c-3.715-3.25-7.481-6.231-11.057-9.194c-3.59-2.946-7.059-5.792-10.389-8.524
			c-6.691-5.425-12.934-10.264-18.409-14.623c-5.549-4.263-10.387-7.98-14.371-11.041c-4.019-3.001-7.177-5.36-9.331-6.968
			c-2.177-1.589-3.337-2.437-3.337-2.437L42.77,176.257z"/>
	</g>
</g>
</svg>
