<?xml version="1.0" encoding="utf-8"?>
<!-- Generator: Adobe Illustrator 16.0.4, SVG Export Plug-In . SVG Version: 6.00 Build 0)  -->
<!DOCTYPE svg PUBLIC "-//W3C//DTD SVG 1.1//EN" "http://www.w3.org/Graphics/SVG/1.1/DTD/svg11.dtd">
<svg version="1.1" xmlns="http://www.w3.org/2000/svg" xmlns:xlink="http://www.w3.org/1999/xlink" x="0px" y="0px" width="370px"
	 height="480px" viewBox="0 0 370 480" enable-background="new 0 0 370 480" xml:space="preserve">
<g id="Layer_1" display="none">
	
		<ellipse display="inline" fill="#FFFFFF" stroke="#000000" stroke-width="0.25" stroke-miterlimit="10" cx="185" cy="294.833" rx="185" ry="185.167"/>
	<g display="inline">
		<g>
			<path d="M358.001,424.833c3.225,0,3.225-5,0-5S354.776,424.833,358.001,424.833L358.001,424.833z"/>
		</g>
	</g>
	<g display="inline">
		<g>
			<path d="M308.668,466.167c3.225,0,3.225-5,0-5S305.443,466.167,308.668,466.167L308.668,466.167z"/>
		</g>
	</g>
	<g display="inline">
		<g>
			<path d="M333.335,439.5c3.225,0,3.225-5,0-5S330.11,439.5,333.335,439.5L333.335,439.5z"/>
		</g>
	</g>
	<g display="inline">
		<g>
			<path d="M388.668,362.833c3.225,0,3.225-5,0-5S385.443,362.833,388.668,362.833L388.668,362.833z"/>
		</g>
	</g>
	<g display="inline">
		<g>
			<path d="M406.668,266.833c3.225,0,3.225-5,0-5S403.443,266.833,406.668,266.833L406.668,266.833z"/>
		</g>
	</g>
	<g display="inline">
		<g>
			<path d="M339.335,123.5c3.225,0,3.225-5,0-5S336.11,123.5,339.335,123.5L339.335,123.5z"/>
		</g>
	</g>
	<g display="inline">
		<g>
			<path d="M187.335,65.5c3.225,0,3.225-5,0-5C184.111,60.5,184.111,65.5,187.335,65.5L187.335,65.5z"/>
		</g>
	</g>
	<g display="inline">
		<g>
			<path d="M2.668,137.5c3.224,0,3.224-5,0-5S-0.556,137.5,2.668,137.5L2.668,137.5z"/>
		</g>
	</g>
	<g display="inline">
		<g>
			<path d="M-27.332,362.167c3.224,0,3.224-5,0-5S-30.556,362.167-27.332,362.167L-27.332,362.167z"/>
		</g>
	</g>
	<g display="inline">
		<g>
			<path d="M152.668,518.833c3.224,0,3.224-5,0-5S149.444,518.833,152.668,518.833L152.668,518.833z"/>
		</g>
	</g>
</g>
<g id="Layer_2">
	<g>
		<line fill="none" x1="233.93" y1="128.445" x2="233.93" y2="128.445"/>
	</g>
	<g>
		<path d="M312.764,159.994c0,0-0.221,0.302-0.648,0.888c-0.424,0.564-1.054,1.401-1.875,2.494c-1.648,2.16-4.089,5.285-7.28,9.175
			c-6.382,7.78-15.777,18.633-27.807,30.919c-12.019,12.287-26.699,25.99-43.467,39.406c-8.381,6.708-17.279,13.343-26.589,19.693
			c-9.284,6.36-19.089,12.388-28.936,18.05c-9.909,5.714-19.926,11.127-29.92,16.237c-9.989,5.107-19.936,9.892-29.638,14.344
			c-19.406,8.905-37.842,16.456-53.782,22.539c-31.888,12.176-53.756,18.466-53.756,18.466s21.69-6.893,53.178-19.92
			c15.739-6.509,33.918-14.547,52.999-23.946c9.539-4.7,19.306-9.734,29.096-15.084c9.784-5.348,19.618-11.018,29.24-16.926
			c9.697-5.938,19.103-12.086,28.104-18.62c8.999-6.508,17.583-13.283,25.654-20.115c16.147-13.664,30.225-27.546,41.705-39.948
			c11.492-12.4,20.415-23.301,26.434-31.063c3.01-3.882,5.296-6.98,6.821-9.098c0.751-1.058,1.327-1.869,1.715-2.416
			c0.369-0.537,0.56-0.813,0.56-0.813L312.764,159.994z"/>
	</g>
	<g>
		<path d="M50.235,166.423c0,0,0.236,0.149,0.694,0.438c0.432,0.278,1.052,0.686,1.841,1.228c1.578,1.083,3.831,2.698,6.581,4.88
			c5.479,4.369,13.024,10.999,20.642,20.296c3.796,4.647,7.588,9.968,10.998,15.967c3.407,5.993,6.432,12.673,8.594,19.899
			c2.175,7.215,3.488,14.962,3.682,22.848c0.208,7.882-0.705,15.892-2.581,23.583c-1.911,7.793-4.976,15.209-8.976,21.919
			c-3.984,6.716-8.819,12.709-14.013,17.926c-5.194,5.225-10.748,9.68-16.261,13.493c-5.517,3.814-11,6.993-16.18,9.663
			c-10.375,5.334-19.507,8.673-25.949,10.756c-6.453,2.075-10.241,2.887-10.241,2.887s3.753-0.965,10.1-3.296
			c6.334-2.336,15.291-6.032,25.342-11.729c5.018-2.851,10.3-6.208,15.562-10.173c5.259-3.962,10.503-8.537,15.327-13.802
			c4.824-5.257,9.226-11.204,12.752-17.741c3.539-6.517,6.142-13.672,7.621-20.969c1.491-7.4,2.031-14.923,1.544-22.252
			c-0.477-7.329-1.98-14.431-4.255-21.011c-2.264-6.589-5.305-12.646-8.685-18.072c-3.382-5.43-7.106-10.236-10.818-14.426
			c-7.447-8.381-14.769-14.311-20.014-18.157c-2.631-1.921-4.762-3.32-6.21-4.231c-0.72-0.439-1.272-0.776-1.644-1.003
			c-0.343-0.197-0.52-0.299-0.52-0.299L50.235,166.423z"/>
	</g>
	<g>
		<path d="M185.992,109.542c0,0,0.658,5.26,1.347,14.478c0.677,9.216,1.41,22.411,1.251,38.259
			c-0.085,7.922-0.411,16.506-1.178,25.558c-0.78,9.046-1.984,18.574-4.068,28.277c-2.098,9.681-5.008,19.622-9.799,28.938
			c-4.933,9.223-11.441,17.691-18.638,25.422c-7.218,7.734-15.179,14.733-23.401,21.088c-8.227,6.356-16.73,12.061-25.168,17.222
			C89.447,319.1,72.832,327.233,58.37,333.624c-14.478,6.378-26.832,10.999-35.535,14.051c-8.707,3.051-13.769,4.53-13.769,4.53
			s5.053-1.51,13.74-4.611c8.684-3.103,21.007-7.795,35.438-14.254c14.415-6.472,30.967-14.697,47.764-25.096
			c8.391-5.2,16.841-10.941,25.001-17.325c8.157-6.381,16.041-13.396,23.168-21.124c7.107-7.728,13.506-16.165,18.316-25.285
			c4.664-9.201,7.493-19.062,9.516-28.68c2.011-9.639,3.152-19.116,3.874-28.12c0.71-9.008,0.984-17.556,1.021-25.445
			c0.064-15.782-0.744-28.925-1.473-38.098c-0.368-4.587-0.728-8.185-0.991-10.634c-0.281-2.441-0.432-3.744-0.432-3.744
			L185.992,109.542z"/>
	</g>
	<g>
		<path d="M154.157,477.582c0,0,0.021-0.16,0.063-0.469c0.04-0.342,0.097-0.884,0.145-1.613c0.101-1.455,0.176-3.662,0.055-6.503
			c-0.222-5.673-1.245-13.915-4.12-23.479c-2.83-9.562-7.512-20.406-14.115-31.184c-3.289-5.392-7.037-10.771-11.15-16.017
			l-1.543-1.974l-1.605-1.937l-1.611-1.943c-0.467-0.588-1.105-1.264-1.651-1.893c-2.183-2.415-4.61-4.734-7.175-6.868
			c-5.132-4.282-10.832-7.938-16.718-11.049c-5.89-3.112-11.968-5.688-17.976-7.851c-12.031-4.321-23.751-7.018-33.86-8.832
			c-10.121-1.809-18.664-2.719-24.649-3.212c-5.989-0.49-9.427-0.556-9.427-0.556s3.437-0.075,9.45,0.17
			c6.011,0.248,14.603,0.808,24.845,2.208c10.233,1.409,22.143,3.634,34.549,7.522c6.196,1.948,12.511,4.32,18.711,7.277
			c6.195,2.957,12.282,6.508,17.889,10.808c2.807,2.151,5.462,4.479,7.976,7.041c0.603,0.64,1.167,1.18,1.799,1.899l1.734,1.925
			l1.729,1.921l1.67,1.963c4.45,5.223,8.553,10.621,12.199,16.083c7.318,10.912,12.727,22.108,16.161,32.176
			c3.48,10.065,4.979,18.953,5.485,25.265c0.264,3.158,0.287,5.683,0.238,7.443c-0.021,0.879-0.062,1.567-0.1,2.055
			c-0.049,0.518-0.072,0.785-0.072,0.785L154.157,477.582z"/>
	</g>
	<g>
		<path d="M318.773,422.656c-0.001,0-3.273-3.965-9.948-10.068c-1.692-1.493-3.497-3.226-5.619-4.931
			c-2.1-1.732-4.323-3.663-6.854-5.533c-1.249-0.956-2.538-1.942-3.865-2.958c-1.311-1.039-2.762-1.967-4.195-2.996
			c-1.445-1.012-2.929-2.049-4.447-3.111c-1.516-1.066-3.152-2.029-4.776-3.084c-1.635-1.037-3.304-2.097-5.005-3.177
			c-1.706-1.07-3.521-2.036-5.324-3.088c-1.813-1.035-3.657-2.088-5.53-3.157c-1.877-1.061-3.861-1.991-5.83-3.015
			c-1.979-1.006-3.985-2.024-6.016-3.056c-1.006-0.537-2.057-0.994-3.11-1.461c-1.053-0.47-2.111-0.941-3.176-1.416
			c-4.263-1.885-8.571-3.925-13.134-5.564c-8.982-3.636-18.516-6.727-28.262-9.632c-4.918-1.303-9.875-2.615-14.852-3.933
			c-5.042-1.044-10.104-2.091-15.165-3.139l-3.791-0.775l-3.836-0.563c-2.556-0.375-5.11-0.75-7.659-1.124
			c-2.561-0.249-5.117-0.497-7.665-0.745c-2.55-0.233-5.086-0.531-7.631-0.628c-5.082-0.254-10.119-0.65-15.109-0.692
			c-2.494-0.058-4.972-0.115-7.433-0.173c-2.461-0.062-4.906-0.003-7.33-0.01c-2.424,0.008-4.828,0.016-7.209,0.024
			c-2.38,0.06-4.738,0.118-7.071,0.177c-2.332,0.062-4.64,0.124-6.919,0.185c-2.278,0.103-4.528,0.203-6.749,0.303
			c-2.22,0.104-4.41,0.204-6.566,0.304c-2.155,0.133-4.278,0.263-6.365,0.391c-2.087,0.13-4.139,0.259-6.153,0.384
			c-2.012,0.152-3.986,0.302-5.92,0.448s-3.828,0.291-5.679,0.432c-1.849,0.163-3.656,0.322-5.417,0.477
			c-3.523,0.3-6.863,0.609-9.998,0.934c-6.275,0.605-11.737,1.221-16.232,1.742c-8.992,1.047-14.113,1.779-14.113,1.779
			s5.119-0.748,14.108-1.822c4.494-0.534,9.955-1.166,16.228-1.791c3.135-0.334,6.474-0.653,9.997-0.964
			c1.761-0.16,3.567-0.325,5.416-0.493c1.851-0.146,3.744-0.296,5.678-0.449c1.934-0.152,3.908-0.308,5.92-0.466
			c2.014-0.132,4.065-0.266,6.153-0.402c2.087-0.134,4.209-0.271,6.365-0.409c2.157-0.106,4.347-0.215,6.567-0.324
			c2.22-0.106,4.471-0.214,6.75-0.323c2.28-0.068,4.588-0.137,6.921-0.206c2.333-0.065,4.692-0.132,7.074-0.198
			c2.382-0.016,4.787-0.03,7.212-0.046c2.425,0,4.872-0.067,7.334-0.013c2.463,0.05,4.944,0.101,7.439,0.151
			c4.995,0.026,10.038,0.408,15.126,0.646c2.546,0.089,5.091,0.381,7.648,0.606c2.556,0.241,5.119,0.482,7.687,0.725
			c2.55,0.366,5.105,0.733,7.663,1.101l3.838,0.552l3.812,0.768c5.073,1.034,10.145,2.067,15.198,3.098
			c4.989,1.305,9.959,2.604,14.889,3.895c9.773,2.881,19.336,5.949,28.351,9.566c4.577,1.63,8.902,3.661,13.183,5.538
			c1.068,0.473,2.131,0.942,3.188,1.409c1.059,0.465,2.113,0.921,3.123,1.456c2.039,1.028,4.054,2.044,6.041,3.046
			c1.978,1.021,3.971,1.948,5.856,3.006c1.882,1.066,3.734,2.117,5.557,3.149c1.812,1.05,3.635,2.013,5.351,3.082
			c1.71,1.078,3.388,2.136,5.031,3.172c1.632,1.053,3.277,2.015,4.801,3.08c1.527,1.062,3.02,2.099,4.474,3.109
			c1.441,1.029,2.901,1.955,4.22,2.994c1.336,1.016,2.634,2.002,3.891,2.958c2.547,1.871,4.787,3.804,6.901,5.537
			c2.137,1.707,3.957,3.443,5.663,4.939c3.361,3.049,5.87,5.592,7.553,7.353c1.677,1.783,2.511,2.775,2.511,2.775L318.773,422.656z"
			/>
	</g>
</g>
</svg>
