<?xml version="1.0" encoding="utf-8"?>
<!-- Generator: Adobe Illustrator 16.0.4, SVG Export Plug-In . SVG Version: 6.00 Build 0)  -->
<!DOCTYPE svg PUBLIC "-//W3C//DTD SVG 1.1//EN" "http://www.w3.org/Graphics/SVG/1.1/DTD/svg11.dtd">
<svg version="1.1" xmlns="http://www.w3.org/2000/svg" xmlns:xlink="http://www.w3.org/1999/xlink" x="0px" y="0px" width="370px"
	 height="480px" viewBox="0 0 370 480" enable-background="new 0 0 370 480" xml:space="preserve">
<g id="Layer_1" display="none">
	
		<ellipse display="inline" fill="#FFFFFF" stroke="#000000" stroke-width="0.25" stroke-miterlimit="10" cx="185" cy="294.833" rx="185" ry="185.167"/>
	<g display="inline">
		<g>
			<path d="M358.001,424.833c3.225,0,3.225-5,0-5S354.776,424.833,358.001,424.833L358.001,424.833z"/>
		</g>
	</g>
	<g display="inline">
		<g>
			<path d="M308.668,466.167c3.225,0,3.225-5,0-5S305.443,466.167,308.668,466.167L308.668,466.167z"/>
		</g>
	</g>
	<g display="inline">
		<g>
			<path d="M333.335,439.5c3.225,0,3.225-5,0-5S330.11,439.5,333.335,439.5L333.335,439.5z"/>
		</g>
	</g>
	<g display="inline">
		<g>
			<path d="M388.668,362.833c3.225,0,3.225-5,0-5S385.443,362.833,388.668,362.833L388.668,362.833z"/>
		</g>
	</g>
	<g display="inline">
		<g>
			<path d="M406.668,266.833c3.225,0,3.225-5,0-5S403.443,266.833,406.668,266.833L406.668,266.833z"/>
		</g>
	</g>
	<g display="inline">
		<g>
			<path d="M339.335,123.5c3.225,0,3.225-5,0-5S336.11,123.5,339.335,123.5L339.335,123.5z"/>
		</g>
	</g>
	<g display="inline">
		<g>
			<path d="M187.335,65.5c3.225,0,3.225-5,0-5C184.111,60.5,184.111,65.5,187.335,65.5L187.335,65.5z"/>
		</g>
	</g>
	<g display="inline">
		<g>
			<path d="M2.668,137.5c3.224,0,3.224-5,0-5S-0.556,137.5,2.668,137.5L2.668,137.5z"/>
		</g>
	</g>
	<g display="inline">
		<g>
			<path d="M-27.332,362.167c3.224,0,3.224-5,0-5S-30.556,362.167-27.332,362.167L-27.332,362.167z"/>
		</g>
	</g>
	<g display="inline">
		<g>
			<path d="M152.668,518.833c3.224,0,3.224-5,0-5S149.444,518.833,152.668,518.833L152.668,518.833z"/>
		</g>
	</g>
</g>
<g id="Layer_2">
	<g>
		<path d="M314.439,156.54c0,0-0.983,0.999-2.828,2.873c-1.854,1.906-4.567,4.734-7.978,8.39
			c-6.818,7.311-16.428,17.933-27.459,31.116c-11.024,13.183-23.479,28.93-35.856,46.487c-12.363,17.554-24.67,36.932-35.075,57.294
			c-5.226,10.189-9.774,20.609-13.79,31.162c-4.019,10.535-7.46,21.121-10.475,31.468c-6.016,20.703-10.267,40.451-13.343,57.473
			c-3.071,17.029-4.959,31.348-6.102,41.388c-1.14,10.043-1.532,15.811-1.532,15.811s0.142-5.778,0.847-15.873
			c0.708-10.093,1.976-24.504,4.315-41.716c2.346-17.207,5.752-37.227,10.919-58.393c2.59-10.579,5.608-21.446,9.231-32.339
			c3.605-10.879,7.847-21.867,12.719-32.466c9.728-21.257,21.406-41.522,33.206-59.916c11.812-18.397,23.77-34.936,34.395-48.817
			c10.629-13.881,19.935-25.107,26.579-32.88c3.323-3.886,5.983-6.909,7.819-8.968c1.868-2.069,2.865-3.172,2.865-3.172
			L314.439,156.54z"/>
	</g>
	<g>
		<path d="M374.386,274.993c0,0-0.299-0.017-0.88-0.05c-0.614-0.024-1.526-0.06-2.716-0.106c-2.401-0.073-5.955-0.133-10.492-0.062
			c-9.066,0.147-22.096,0.779-37.532,3.074c-15.406,2.308-33.297,6.279-51.3,13.612c-8.989,3.659-17.958,8.214-26.458,13.785
			c-4.25,2.782-8.354,5.853-12.273,9.169c-0.988,0.821-1.949,1.673-2.9,2.539l-0.717,0.645l-0.323,0.294l-0.357,0.343l-1.435,1.371
			c-0.951,0.914-1.791,1.807-2.695,2.714c-0.87,0.951-1.767,1.878-2.617,2.85c-6.867,7.729-12.824,16.354-18.024,25.247
			c-5.209,8.896-9.706,18.054-13.662,27.097c-7.895,18.107-13.67,35.723-18.053,50.957c-4.367,15.251-7.321,28.16-9.219,37.227
			c-1.894,9.069-2.729,14.303-2.729,14.303s0.648-5.259,2.221-14.4c1.577-9.138,4.073-22.162,7.91-37.615
			c3.855-15.44,9.021-33.339,16.353-51.935c3.676-9.289,7.907-18.745,12.91-28.034c4.999-9.284,10.81-18.401,17.728-26.771
			c0.857-1.051,1.767-2.062,2.649-3.097c0.926-1.004,1.871-2.068,2.794-3.021l1.385-1.421l0.346-0.355l0.396-0.39l0.732-0.706
			c0.971-0.948,1.953-1.884,2.963-2.785c4.01-3.643,8.222-7.031,12.59-10.117c8.736-6.178,17.981-11.286,27.244-15.443
			c18.554-8.329,36.984-13.097,52.869-16.054c15.919-2.943,29.379-4.074,38.825-4.562c4.727-0.239,8.457-0.31,11.021-0.322
			c1.293,0.005,2.283,0.009,2.951,0.012c0.701,0.016,1.063,0.023,1.063,0.023L374.386,274.993z"/>
	</g>
	<g>
		<path d="M8.096,348.819c0,0,0.251-0.068,0.736-0.201c0.467-0.12,1.16-0.299,2.064-0.531c1.798-0.448,4.424-1.075,7.777-1.781
			c6.704-1.4,16.318-3.177,28.009-4.284c5.842-0.556,12.205-0.925,18.958-0.928c6.75,0.004,13.899,0.372,21.249,1.461
			c7.337,1.097,14.908,2.885,22.217,5.949c7.289,3.044,14.322,7.446,19.964,13.354c2.807,2.954,5.248,6.251,7.245,9.762
			c0.492,0.881,0.999,1.754,1.418,2.668c0.442,0.902,0.889,1.801,1.256,2.73l0.579,1.382l0.158,0.383l0.12,0.335l0.24,0.67
			c0.32,0.894,0.639,1.784,0.958,2.674c0.633,1.782,1.265,3.558,1.893,5.323c0.585,1.802,1.167,3.594,1.746,5.376
			c1.203,3.554,2.161,7.095,3.211,10.561c1.004,3.475,1.896,6.916,2.811,10.271c0.83,3.377,1.689,6.667,2.438,9.891
			c1.506,6.443,2.842,12.552,3.957,18.212c0.571,2.827,1.097,5.54,1.563,8.126c0.489,2.582,0.917,5.037,1.311,7.346
			c0.8,4.615,1.427,8.648,1.928,11.972c0.994,6.648,1.436,10.463,1.436,10.463s-0.632-3.788-1.956-10.371
			c-0.665-3.292-1.492-7.283-2.52-11.844c-0.508-2.281-1.056-4.707-1.672-7.255c-0.593-2.553-1.252-5.229-1.961-8.015
			c-1.391-5.577-3.023-11.587-4.84-17.91c-0.903-3.163-1.92-6.386-2.91-9.691c-1.074-3.28-2.127-6.644-3.292-10.03
			c-1.207-3.367-2.337-6.842-3.683-10.244c-0.651-1.711-1.307-3.433-1.965-5.163c-0.689-1.729-1.433-3.467-2.152-5.212l-1.09-2.622
			c-0.177-0.411-0.375-0.935-0.536-1.256l-0.566-1.229c-0.358-0.83-0.79-1.623-1.214-2.42c-0.402-0.809-0.885-1.571-1.35-2.345
			c-1.89-3.072-4.148-5.912-6.717-8.439c-5.164-5.046-11.536-8.763-18.26-11.31c-6.734-2.561-13.809-3.993-20.723-4.786
			c-6.925-0.789-13.72-0.912-20.156-0.696c-6.44,0.221-12.53,0.78-18.129,1.506c-11.203,1.445-20.436,3.477-26.825,5.039
			c-3.196,0.788-5.683,1.472-7.361,1.95c-1.64,0.488-2.514,0.749-2.514,0.749L8.096,348.819z"/>
	</g>
	<g>
		<path d="M35.444,162.879c0,0,0.088,0.029,0.263,0.085c0.195,0.068,0.567,0.186,0.9,0.312c0.72,0.264,1.75,0.653,3.032,1.212
			c2.574,1.11,6.222,2.848,10.589,5.434c4.37,2.578,9.475,5.98,14.965,10.302c5.491,4.318,11.363,9.555,17.287,15.7
			c5.925,6.141,11.886,13.198,17.651,21.025c5.774,7.823,11.32,16.438,16.5,25.636c5.184,9.197,10,18.976,14.409,29.103
			c1.074,2.543,2.152,5.096,3.234,7.656c1.009,2.588,2.021,5.183,3.036,7.783c1.042,2.59,1.908,5.249,2.871,7.874l1.411,3.952
			l0.177,0.494l0.176,0.554l0.312,0.994l0.625,1.99c3.2,10.976,5.154,21.931,6.916,32.8c1.731,10.854,3.127,21.562,4.344,31.934
			c2.417,20.745,4.13,40.146,5.466,56.783c1.328,16.638,2.246,30.513,2.847,40.228c0.561,9.717,0.881,15.27,0.881,15.27
			s-0.479-5.54-1.316-15.236c-0.877-9.691-2.19-23.531-3.991-40.111c-1.809-16.578-4.073-35.905-7.072-56.515
			c-1.507-10.302-3.202-20.924-5.227-31.642c-2.036-10.683-4.34-21.613-7.667-31.914l-0.681-1.971l-0.34-0.985l-0.151-0.437
			l-0.188-0.483l-1.5-3.859c-1.022-2.562-1.947-5.161-3.044-7.682c-1.069-2.532-2.136-5.06-3.199-7.578
			c-1.133-2.487-2.262-4.967-3.387-7.437c-4.605-9.825-9.586-19.267-14.889-28.095c-5.299-8.829-10.917-17.044-16.704-24.446
			c-5.779-7.407-11.695-14.026-17.515-19.732c-5.818-5.71-11.523-10.516-16.797-14.432c-5.273-3.919-10.111-6.949-14.186-9.204
			c-4.074-2.263-7.39-3.723-9.626-4.616c-1.12-0.453-1.971-0.744-2.521-0.929c-0.511-0.16-0.775-0.242-0.775-0.242L35.444,162.879z"
			/>
	</g>
	<g>
		<polygon points="188.831,96.439 160.001,483 185.839,96.228 		"/>
	</g>
</g>
</svg>
