<?xml version="1.0" encoding="utf-8"?>
<!-- Generator: Adobe Illustrator 16.0.4, SVG Export Plug-In . SVG Version: 6.00 Build 0)  -->
<!DOCTYPE svg PUBLIC "-//W3C//DTD SVG 1.1//EN" "http://www.w3.org/Graphics/SVG/1.1/DTD/svg11.dtd">
<svg version="1.1" id="Layer_1" xmlns="http://www.w3.org/2000/svg" xmlns:xlink="http://www.w3.org/1999/xlink" x="0px" y="0px"
	 width="400px" height="400px" viewBox="0 0 400 400" enable-background="new 0 0 400 400" xml:space="preserve">
<path fill="#FFFFFF" stroke="#000000" stroke-miterlimit="10" d="M414.667,192"/>
<path fill="#FFFFFF" stroke="#000000" stroke-miterlimit="10" d="M-12,270"/>
<path fill="none" stroke="#000000" stroke-miterlimit="10" d="M218-18.667"/>
<path fill="none" stroke="#000000" stroke-miterlimit="10" d="M393.333,309.333"/>
<g>
	<path fill="none" d="M42.667,83.333"/>
</g>
<g>
	<path fill="none" d="M344,333.333"/>
</g>
<g>
	<path fill="none" d="M419.333,200"/>
</g>
<g>
	<path fill="none" d="M42.667,83.333"/>
</g>
<g>
	<path fill="#FFFFFF" d="M177.333,394.667"/>
</g>
<g>
	<path fill="#FFFFFF" d="M426.667,200"/>
</g>
<g>
	<path fill="#FFFFFF" d="M429.333,192"/>
</g>
<g>
	<path fill="#FFFFFF" d="M250,99"/>
</g>
<g>
	<path fill="#FFFFFF" d="M219.333,6"/>
</g>
<g>
	<path fill="#FFFFFF" d="M429.333,200"/>
</g>
<g>
	<path fill="none" d="M372,65.333"/>
</g>
<g>
	<path fill="none" d="M10.665,264.605"/>
</g>
<g>
	<path fill="none" d="M372,60"/>
</g>
<g>
	<path fill="none" d="M42.667,83.333"/>
</g>
<g>
	<path fill="none" d="M222.667-18.667"/>
</g>
<g>
	<path fill="none" d="M170.667,394.667"/>
</g>
<g>
	<g>
		<path fill="none" stroke="#3D3D3D" stroke-width="21.75" stroke-miterlimit="10" d="M327.312,95.236
			c-27.283,19.326-69.839,53.193-96.645,92.764c-31.05,45.835-60,224-60,224"/>
		<g>
			<polygon fill="#3D3D3D" points="310.059,80.918 353.332,77.998 334.227,116.938 			"/>
		</g>
	</g>
</g>
<g>
	<g>
		<path fill="none" stroke="#3D3D3D" stroke-width="19" stroke-miterlimit="10" d="M184,407.333c0,0,5.027-106.333,70-167.333
			c31.478-29.552,81.369-39.84,112.132-43.421"/>
		<g>
			<polygon fill="#3D3D3D" points="362.078,216.084 393.333,194.668 359.159,178.304 			"/>
		</g>
	</g>
</g>
<g>
	<g>
		<path fill="none" stroke="#3D3D3D" stroke-width="17.5" stroke-miterlimit="10" d="M57.539,92.61
			C87.719,110.024,139.792,145.69,156,192c28,80,21.333,223.333,21.333,223.333"/>
		<g>
			<polygon fill="#3D3D3D" points="53.614,110.6 35.333,80.874 70.218,79.902 			"/>
		</g>
	</g>
</g>
<g>
	<g>
		<path fill="none" stroke="#3D3D3D" stroke-width="17.5" stroke-miterlimit="10" d="M35.458,260.602
			c28.974-3.447,75.839-4.924,98.542,16.731c43.333,41.334,36.667,138,36.667,138"/>
		<g>
			<polygon fill="#3D3D3D" points="43.189,277.256 10.665,264.607 37.88,242.761 			"/>
		</g>
	</g>
</g>
<g>
	<g>
		<line fill="none" stroke="#3D3D3D" stroke-width="12.5" stroke-miterlimit="10" x1="216.274" y1="19.057" x2="177.333" y2="422"/>
		<g>
			<polygon fill="#3D3D3D" points="203.517,21.488 217.999,1.2 228.33,23.886 			"/>
		</g>
	</g>
</g>
</svg>
