<?xml version="1.0" encoding="utf-8"?>
<!-- Generator: Adobe Illustrator 16.0.4, SVG Export Plug-In . SVG Version: 6.00 Build 0)  -->
<!DOCTYPE svg PUBLIC "-//W3C//DTD SVG 1.1//EN" "http://www.w3.org/Graphics/SVG/1.1/DTD/svg11.dtd">
<svg version="1.1" id="Layer_1" xmlns="http://www.w3.org/2000/svg" xmlns:xlink="http://www.w3.org/1999/xlink" x="0px" y="0px"
	 width="370px" height="480px" viewBox="0 0 370 480" enable-background="new 0 0 370 480" xml:space="preserve">
<g id="Layer_1_1_" display="none">
	
		<ellipse display="inline" fill="#FFFFFF" stroke="#000000" stroke-width="0.25" stroke-miterlimit="10" cx="185" cy="294.833" rx="185" ry="185.167"/>
	<g display="inline">
		<g>
			<path d="M358.001,424.833c3.225,0,3.225-5,0-5S354.776,424.833,358.001,424.833L358.001,424.833z"/>
		</g>
	</g>
	<g display="inline">
		<g>
			<path d="M308.668,466.167c3.225,0,3.225-5,0-5S305.443,466.167,308.668,466.167L308.668,466.167z"/>
		</g>
	</g>
	<g display="inline">
		<g>
			<path d="M333.335,439.5c3.225,0,3.225-5,0-5S330.11,439.5,333.335,439.5L333.335,439.5z"/>
		</g>
	</g>
	<g display="inline">
		<g>
			<path d="M388.668,362.833c3.225,0,3.225-5,0-5S385.443,362.833,388.668,362.833L388.668,362.833z"/>
		</g>
	</g>
	<g display="inline">
		<g>
			<path d="M406.668,266.833c3.225,0,3.225-5,0-5S403.443,266.833,406.668,266.833L406.668,266.833z"/>
		</g>
	</g>
	<g display="inline">
		<g>
			<path d="M339.335,123.5c3.225,0,3.225-5,0-5S336.11,123.5,339.335,123.5L339.335,123.5z"/>
		</g>
	</g>
	<g display="inline">
		<g>
			<path d="M187.335,65.5c3.226,0,3.226-5,0-5C184.111,60.5,184.111,65.5,187.335,65.5L187.335,65.5z"/>
		</g>
	</g>
	<g display="inline">
		<g>
			<path d="M2.668,137.5c3.224,0,3.224-5,0-5S-0.556,137.5,2.668,137.5L2.668,137.5z"/>
		</g>
	</g>
	<g display="inline">
		<g>
			<path d="M-27.332,362.167c3.224,0,3.224-5,0-5S-30.556,362.167-27.332,362.167L-27.332,362.167z"/>
		</g>
	</g>
	<g display="inline">
		<g>
			<path d="M152.668,518.833c3.224,0,3.224-5,0-5S149.444,518.833,152.668,518.833L152.668,518.833z"/>
		</g>
	</g>
</g>
<g id="Layer_2">
	<g>
		<path d="M138.656,463.887c0,0,0.083-0.288,0.242-0.846c0.15-0.487,0.366-1.162,0.66-1.975c0.585-1.636,1.477-3.894,2.763-6.622
			c2.57-5.438,6.777-12.797,13.16-20.444c3.195-3.811,6.927-7.677,11.171-11.363c4.241-3.689,8.996-7.195,14.154-10.328
			c5.158-3.137,10.712-5.895,16.495-8.187c1.454-0.542,2.912-1.087,4.377-1.634l0.273-0.101l0.166-0.063l0.065-0.021l0.132-0.042
			l0.527-0.172l1.107-0.354c0.836-0.257,1.679-0.512,2.446-0.703c3.15-0.841,6.275-1.43,9.375-1.889
			c6.196-0.909,12.307-1.306,18.282-1.47c5.974-0.162,11.812-0.078,17.441,0.132c11.253,0.429,21.666,1.354,30.559,2.31
			c8.894,0.968,16.266,1.98,21.415,2.742c5.151,0.763,8.08,1.273,8.08,1.273s-2.969-0.148-8.163-0.273
			c-5.192-0.125-12.612-0.227-21.497-0.098c-8.882,0.138-19.238,0.498-30.227,1.432c-5.492,0.469-11.142,1.088-16.803,1.941
			c-5.658,0.856-11.343,1.947-16.771,3.445c-2.711,0.748-5.356,1.602-7.829,2.604c-0.642,0.25-1.188,0.5-1.741,0.743l-0.958,0.44
			l-0.502,0.235l-0.125,0.058l-0.062,0.03c-0.043,0.017,0.146-0.057,0.039-0.011l-0.232,0.12c-1.234,0.637-2.465,1.271-3.689,1.905
			c-4.84,2.625-9.341,5.587-13.394,8.772c-8.125,6.361-14.371,13.621-18.747,20.342c-4.375,6.74-6.947,12.889-8.365,17.137
			c-0.706,2.128-1.132,3.785-1.369,4.84c-0.122,0.531-0.187,0.898-0.223,1.115c-0.02,0.117,0.001,0.071-0.003,0.104
			c-0.014,0.078-0.02,0.117-0.02,0.117L138.656,463.887z"/>
	</g>
	<g>
		<path d="M44.229,172.399c0,0,4.513,3.207,12.408,8.817c3.932,2.828,8.708,6.26,14.184,10.199
			c5.487,3.925,11.611,8.445,18.322,13.335c6.724,4.871,13.919,10.273,21.558,15.947c7.664,5.637,15.61,11.772,23.873,18.06
			c2.063,1.573,4.145,3.161,6.242,4.759c2.09,1.605,4.16,3.272,6.261,4.923c4.194,3.312,8.439,6.665,12.718,10.044
			c4.32,3.326,8.479,6.935,12.736,10.448c2.119,1.768,4.244,3.539,6.371,5.312c2.112,1.78,4.29,3.519,6.327,5.396
			c8.251,7.4,16.571,14.718,24.633,22.072c7.947,7.484,15.817,14.799,23.343,21.972c7.428,7.273,14.608,14.306,21.417,20.974
			c6.702,6.78,13.036,13.19,18.884,19.107c5.768,5.996,11.054,11.494,15.741,16.367c4.63,4.927,8.666,9.222,11.99,12.76
			c3.29,3.57,5.874,6.374,7.635,8.286c1.749,1.927,2.68,2.954,2.68,2.954s-0.938-1.022-2.694-2.939
			c-1.772-1.903-4.372-4.692-7.681-8.245c-3.342-3.52-7.401-7.792-12.057-12.693c-4.711-4.846-10.026-10.314-15.824-16.277
			c-5.878-5.885-12.246-12.257-18.981-18.999c-6.842-6.629-14.06-13.62-21.522-20.852c-7.559-7.128-15.464-14.391-23.442-21.827
			c-8.098-7.307-16.458-14.58-24.747-21.935c-2.05-1.868-4.212-3.573-6.342-5.347c-2.132-1.759-4.263-3.517-6.39-5.27
			c-4.27-3.486-8.438-7.063-12.774-10.365c-4.293-3.353-8.552-6.679-12.76-9.967c-2.109-1.637-4.185-3.29-6.281-4.884
			c-2.103-1.586-4.192-3.161-6.263-4.723c-8.291-6.237-16.262-12.324-23.953-17.917c-7.665-5.629-14.884-10.989-21.631-15.821
			c-6.733-4.851-12.878-9.337-18.382-13.229c-5.495-3.906-10.286-7.311-14.231-10.115c-7.92-5.564-12.446-8.744-12.446-8.744
			L44.229,172.399z"/>
	</g>
	<g>
		<path d="M9.044,345.119c0,0,4.871-1.081,13.427-2.631c8.562-1.545,20.827-3.57,35.631-5.34c3.696-0.479,7.565-0.82,11.561-1.258
			c3.995-0.426,8.142-0.698,12.396-1.068c4.257-0.326,8.643-0.513,13.119-0.784c4.481-0.162,9.063-0.27,13.721-0.377
			c2.331,0.021,4.68,0.039,7.047,0.058c2.366,0.04,4.751-0.02,7.146,0.145c2.396,0.118,4.808,0.236,7.229,0.355
			c1.211,0.074,2.428,0.091,3.641,0.21s2.429,0.24,3.647,0.36c2.436,0.24,4.882,0.482,7.336,0.727
			c2.443,0.329,4.882,0.762,7.332,1.141c4.924,0.649,9.755,1.909,14.6,2.945l3.634,0.807l1.816,0.409l1.799,0.49
			c2.398,0.657,4.793,1.31,7.186,1.964l3.582,0.979c1.193,0.325,2.388,0.637,3.555,1.03c2.348,0.751,4.688,1.5,7.021,2.244
			c2.326,0.76,4.663,1.457,6.953,2.256c2.281,0.826,4.55,1.648,6.807,2.466c2.254,0.821,4.494,1.637,6.719,2.446
			c2.197,0.882,4.38,1.757,6.543,2.626c2.165,0.867,4.31,1.73,6.436,2.583c2.1,0.916,4.179,1.824,6.236,2.722
			c2.056,0.9,4.091,1.789,6.1,2.668c2,0.903,3.949,1.85,5.888,2.754c1.933,0.908,3.841,1.809,5.722,2.692
			c1.878,0.886,3.691,1.837,5.493,2.729c3.598,1.803,7.082,3.529,10.362,5.311c3.296,1.755,6.472,3.4,9.43,5.086
			c2.966,1.667,5.807,3.198,8.414,4.752c5.258,3.028,9.78,5.773,13.484,8.069c7.402,4.6,11.494,7.448,11.494,7.448
			s-4.107-2.824-11.536-7.379c-3.718-2.271-8.257-4.989-13.529-7.983c-2.616-1.536-5.466-3.052-8.44-4.698
			c-2.965-1.668-6.151-3.293-9.453-5.027c-3.289-1.762-6.782-3.465-10.387-5.243c-1.807-0.882-3.624-1.821-5.507-2.695
			c-1.882-0.872-3.795-1.757-5.733-2.656c-1.94-0.891-3.895-1.823-5.897-2.713c-2.011-0.866-4.049-1.744-6.107-2.629
			c-2.062-0.885-4.144-1.778-6.245-2.683c-2.126-0.838-4.276-1.685-6.442-2.539c-2.164-0.855-4.348-1.715-6.549-2.583
			c-2.227-0.795-4.467-1.596-6.723-2.4c-2.257-0.802-4.528-1.61-6.811-2.42c-2.289-0.785-4.626-1.468-6.951-2.21
			c-2.333-0.729-4.672-1.463-7.02-2.196c-1.168-0.389-2.359-0.69-3.55-1.008l-3.573-0.953c-2.386-0.636-4.775-1.272-7.167-1.91
			l-1.794-0.479l-1.818-0.396l-3.64-0.785c-4.87-1.01-9.671-2.232-14.565-2.848c-2.438-0.36-4.864-0.775-7.295-1.09
			c-2.443-0.226-4.878-0.452-7.305-0.678c-1.212-0.111-2.423-0.226-3.631-0.337c-1.208-0.112-2.42-0.121-3.625-0.187
			c-2.413-0.104-4.813-0.207-7.2-0.311c-2.384-0.148-4.763-0.076-7.12-0.1c-2.358-0.005-4.699-0.01-7.02-0.016
			c-4.642,0.134-9.207,0.271-13.672,0.458c-4.46,0.3-8.83,0.511-13.073,0.862c-4.239,0.396-8.372,0.692-12.355,1.141
			c-3.98,0.461-7.836,0.822-11.52,1.324c-14.753,1.854-26.973,3.949-35.498,5.54c-8.531,1.6-13.349,2.701-13.35,2.701L9.044,345.119
			z"/>
	</g>
	<g>
		<path d="M340.902,353.148c0,0-0.296-0.073-0.828-0.18c-0.543-0.1-1.354-0.228-2.393-0.33c-1.041-0.097-2.309-0.152-3.766-0.122
			c-0.728,0.013-1.5,0.098-2.316,0.146c-0.812,0.081-1.658,0.24-2.548,0.362c-0.879,0.177-1.784,0.418-2.727,0.633
			c-0.917,0.311-1.865,0.631-2.841,0.961c-0.932,0.437-1.903,0.861-2.875,1.335c-0.925,0.563-1.89,1.111-2.838,1.721
			c-0.893,0.69-1.802,1.389-2.725,2.1c-0.837,0.811-1.684,1.629-2.54,2.457c-0.781,0.896-1.524,1.843-2.298,2.771
			c-0.405,0.449-0.722,0.969-1.05,1.478l-0.994,1.527c-0.321,0.512-0.685,1.014-0.974,1.534l-0.858,1.615l-0.751,1.642
			c-0.215,0.562-0.431,1.124-0.646,1.683c-0.785,2.265-1.252,4.598-1.409,6.88c-0.326,4.578,0.602,8.858,1.884,12.279
			c1.295,3.436,2.892,6.072,4.097,7.83c1.212,1.762,2.043,2.661,2.043,2.661s-0.842-0.888-2.077-2.636
			c-1.227-1.746-2.858-4.365-4.2-7.8c-1.33-3.421-2.32-7.72-2.046-12.354c0.131-2.31,0.574-4.682,1.345-6.988
			c0.21-0.569,0.421-1.141,0.633-1.714l0.747-1.687l0.841-1.628c0.297-0.551,0.648-1.046,0.971-1.572l0.985-1.558
			c0.329-0.52,0.644-1.051,1.048-1.511c0.771-0.95,1.514-1.922,2.299-2.841c0.861-0.853,1.714-1.698,2.556-2.533
			c0.919-0.749,1.85-1.461,2.754-2.177c0.96-0.634,1.94-1.206,2.881-1.795c0.988-0.5,1.978-0.944,2.93-1.403
			c0.993-0.352,1.959-0.706,2.899-1.022c0.964-0.233,1.89-0.492,2.789-0.684c0.909-0.139,1.776-0.31,2.609-0.404
			c0.836-0.061,1.629-0.158,2.376-0.181c1.495-0.049,2.8-0.006,3.873,0.079c1.072,0.092,1.91,0.213,2.484,0.311
			c0.585,0.109,0.877,0.18,0.877,0.18L340.902,353.148z"/>
	</g>
	<g>
		<path d="M288.506,427.349c0,0-0.077-0.167-0.224-0.479c-0.138-0.312-0.334-0.772-0.552-1.367
			c-0.214-0.597-0.465-1.325-0.684-2.181c-0.238-0.851-0.427-1.832-0.575-2.909c-0.125-1.081-0.206-2.267-0.1-3.516
			c0.051-1.256,0.383-2.553,0.816-3.848c0.534-1.251,1.213-2.527,2.142-3.586c0.893-1.073,1.684-2.245,2.729-3.238l1.484-1.539
			c0.547-0.455,1.091-0.905,1.631-1.353c0.276-0.216,0.527-0.462,0.82-0.648c0.295-0.183,0.588-0.365,0.88-0.546
			c0.586-0.356,1.14-0.756,1.774-0.979c1.205-0.578,2.461-0.921,3.669-1.063c1.215-0.121,2.38-0.039,3.405,0.235
			c0.511,0.146,1.009,0.261,1.441,0.485c0.445,0.19,0.865,0.373,1.226,0.613c0.375,0.217,0.72,0.425,1.01,0.662
			c0.301,0.221,0.575,0.426,0.801,0.641c0.932,0.817,1.35,1.398,1.35,1.398s-0.432-0.572-1.376-1.367
			c-0.228-0.209-0.506-0.406-0.811-0.62c-0.293-0.229-0.641-0.429-1.015-0.636c-0.363-0.229-0.783-0.403-1.228-0.582
			c-0.432-0.212-0.926-0.314-1.432-0.447c-1.015-0.25-2.159-0.305-3.345-0.161c-1.181,0.165-2.401,0.528-3.567,1.118
			c-0.616,0.228-1.151,0.638-1.722,0.997c-0.281,0.183-0.566,0.368-0.851,0.554c-0.283,0.188-0.527,0.438-0.793,0.655
			c-0.521,0.451-1.048,0.905-1.574,1.361l-1.425,1.542c-0.992,0.979-1.776,2.187-2.642,3.273c-0.894,1.064-1.486,2.264-1.977,3.462
			c-0.38,1.236-0.675,2.467-0.693,3.665c-0.079,1.189,0.021,2.323,0.164,3.356c0.165,1.032,0.365,1.972,0.612,2.786
			c0.227,0.819,0.485,1.516,0.701,2.085c0.222,0.567,0.418,1.003,0.555,1.297c0.142,0.287,0.218,0.441,0.218,0.441L288.506,427.349z
			"/>
	</g>
</g>
</svg>
