<?xml version="1.0" encoding="utf-8"?>
<!-- Generator: Adobe Illustrator 16.0.4, SVG Export Plug-In . SVG Version: 6.00 Build 0)  -->
<!DOCTYPE svg PUBLIC "-//W3C//DTD SVG 1.1//EN" "http://www.w3.org/Graphics/SVG/1.1/DTD/svg11.dtd">
<svg version="1.1" xmlns="http://www.w3.org/2000/svg" xmlns:xlink="http://www.w3.org/1999/xlink" x="0px" y="0px" width="370px"
	 height="480px" viewBox="0 0 370 480" enable-background="new 0 0 370 480" xml:space="preserve">
<g id="Layer_1">
	
		<ellipse fill="#FFFFFF" stroke="#000000" stroke-width="0.25" stroke-miterlimit="10" cx="185" cy="294.833" rx="185" ry="185.167"/>
	<g>
		<g>
			<path d="M358.001,424.833c3.225,0,3.225-5,0-5S354.776,424.833,358.001,424.833L358.001,424.833z"/>
		</g>
	</g>
	<g>
		<g>
			<path d="M308.668,466.167c3.225,0,3.225-5,0-5S305.443,466.167,308.668,466.167L308.668,466.167z"/>
		</g>
	</g>
	<g>
		<g>
			<path d="M333.335,439.5c3.225,0,3.225-5,0-5S330.11,439.5,333.335,439.5L333.335,439.5z"/>
		</g>
	</g>
	<g>
		<g>
			<path d="M388.668,362.833c3.225,0,3.225-5,0-5S385.443,362.833,388.668,362.833L388.668,362.833z"/>
		</g>
	</g>
	<g>
		<g>
			<path d="M406.668,266.833c3.225,0,3.225-5,0-5S403.443,266.833,406.668,266.833L406.668,266.833z"/>
		</g>
	</g>
	<g>
		<g>
			<path d="M339.335,123.5c3.225,0,3.225-5,0-5S336.11,123.5,339.335,123.5L339.335,123.5z"/>
		</g>
	</g>
	<g>
		<g>
			<path d="M187.335,65.5c3.225,0,3.225-5,0-5C184.111,60.5,184.111,65.5,187.335,65.5L187.335,65.5z"/>
		</g>
	</g>
	<g>
		<g>
			<path d="M2.668,137.5c3.224,0,3.224-5,0-5S-0.556,137.5,2.668,137.5L2.668,137.5z"/>
		</g>
	</g>
	<g>
		<g>
			<path d="M-27.332,362.167c3.224,0,3.224-5,0-5S-30.556,362.167-27.332,362.167L-27.332,362.167z"/>
		</g>
	</g>
	<g>
		<g>
			<path d="M152.668,518.833c3.224,0,3.224-5,0-5S149.444,518.833,152.668,518.833L152.668,518.833z"/>
		</g>
	</g>
</g>
<g id="Layer_2">
	<g>
		<line fill="none" x1="233.93" y1="128.445" x2="233.93" y2="128.445"/>
	</g>
	<g>
		<path d="M132.589,471.025c0,0,0.458-1.257,1.316-3.615c0.857-2.429,2.117-6.041,3.645-10.716c0.769-2.334,1.614-4.925,2.496-7.77
			c0.905-2.833,1.85-5.915,2.834-9.222c1.998-6.601,4.137-14.102,6.355-22.327c2.226-8.225,4.48-17.186,6.736-26.705
			c1.135-4.759,2.18-9.672,3.318-14.688c1.082-5.023,2.1-10.174,3.186-15.41c0.979-5.254,1.975-10.597,2.983-16.004
			c0.895-5.431,1.801-10.928,2.714-16.468c0.788-5.542,1.583-11.128,2.38-16.735c0.71-5.732,1.423-11.487,2.136-17.243
			c0.745-5.774,1.338-11.456,1.994-17.162c0.321-2.85,0.642-5.693,0.962-8.529c0.292-2.845,0.584-5.681,0.875-8.506
			c1.191-11.306,2.19-22.448,3.141-33.242c0.434-5.4,0.86-10.71,1.277-15.909c0.367-5.203,0.727-10.294,1.077-15.25
			c0.645-9.916,1.192-19.301,1.606-27.97c0.84-17.338,1.217-31.813,1.35-41.95c0.137-10.138,0.03-15.938,0.03-15.938
			s0.762,5.75,1.773,15.858c1.016,10.107,2.281,24.573,3.411,41.973c0.571,8.7,1.092,18.132,1.574,28.118
			c0.214,4.995,0.434,10.126,0.658,15.371c0.175,5.249,0.353,10.61,0.533,16.063c0.277,10.907,0.547,22.189,0.642,33.655
			c0.031,2.869,0.062,5.748,0.094,8.637c0.003,2.895,0.006,5.798,0.008,8.707c-0.006,5.81,0.045,11.695-0.042,17.472
			c-0.058,5.799-0.115,11.598-0.173,17.374c-0.165,5.887-0.329,11.75-0.492,17.567c-0.291,5.795-0.579,11.543-0.864,17.223
			c-0.404,5.675-0.804,11.281-1.196,16.796c-0.502,5.503-0.949,10.928-1.476,16.228c-0.581,5.291-1.086,10.483-1.697,15.521
			c-1.21,10.079-2.487,19.603-3.823,28.379c-1.329,8.778-2.664,16.816-3.964,23.938c-0.634,3.562-1.256,6.896-1.867,9.978
			c-0.585,3.083-1.166,5.918-1.698,8.479c-1.052,5.124-1.966,9.171-2.607,11.959c-0.683,2.847-1.047,4.365-1.047,4.365
			L132.589,471.025z"/>
	</g>
	<g>
		<path d="M7.123,339.32c0,0,0.177-0.017,0.519-0.049c0.417-0.049,1.125-0.144,2.089-0.311c1.923-0.324,4.889-0.927,8.686-1.98
			c3.796-1.049,8.424-2.539,13.661-4.603c5.238-2.059,11.07-4.729,17.273-8.039c12.412-6.604,26.25-15.946,39.735-27.803
			c6.749-5.916,13.418-12.435,19.86-19.417c1.606-1.749,3.239-3.491,4.789-5.319l2.361-2.718l1.184-1.362l0.074-0.085
			c0.002,0,0.1-0.121,0.024-0.021l0.146-0.178l0.293-0.356l0.587-0.714c2.976-3.6,5.746-7.413,8.405-11.409
			c5.305-7.97,10.064-16.452,14.401-25.012c4.338-8.565,8.268-17.215,11.86-25.692c7.172-16.967,13.018-33.224,17.719-47.262
			c4.694-14.045,8.23-25.89,10.61-34.208c2.379-8.319,3.599-13.116,3.599-13.116s-0.85,4.875-2.591,13.363
			c-1.742,8.487-4.37,20.589-7.997,35.02c-3.636,14.426-8.251,31.188-14.195,48.91c-2.98,8.858-6.299,17.954-10.079,27.084
			c-3.783,9.128-8.029,18.293-13.025,27.21c-2.49,4.444-5.21,8.87-8.2,13.109l-0.531,0.756l-0.266,0.378l-0.132,0.189l-0.19,0.254
			l-1.125,1.513l-2.249,3.021c-1.476,2.029-3.043,3.98-4.588,5.939c-6.196,7.824-12.713,15.237-19.421,22.075
			c-13.397,13.699-27.615,24.994-40.811,33.35c-6.594,4.187-12.907,7.679-18.698,10.477c-5.789,2.805-11.033,4.95-15.474,6.547
			c-4.438,1.602-8.078,2.647-10.685,3.297c-1.3,0.328-2.34,0.556-3.104,0.708c-0.841,0.154-1.274,0.233-1.274,0.233L7.123,339.32z"
			/>
	</g>
	<g>
		<path d="M316.57,164.479c-0.055,0.058-0.676,0.679-1.723,1.586c-1.061,0.921-2.602,2.188-4.629,3.657
			c-4.046,2.927-10.069,6.722-17.959,9.828c-3.938,1.545-8.337,2.902-13.089,3.838c-4.747,0.938-9.848,1.447-15.093,1.361
			c-5.245-0.08-10.624-0.76-15.901-2.032c-5.278-1.27-10.454-3.109-15.369-5.391c-5.102-2.343-9.698-5.542-13.697-9.079
			c-4.008-3.548-7.49-7.428-10.54-11.37c-6.096-7.902-10.573-15.969-14.008-23.012c-3.423-7.058-5.783-13.133-7.32-17.415
			c-1.535-4.285-2.242-6.784-2.242-6.784s0.935,2.424,2.849,6.535c1.916,4.106,4.81,9.907,8.809,16.526
			c4.003,6.6,9.117,14.064,15.594,21.024c3.234,3.472,6.829,6.787,10.758,9.666c3.932,2.877,8.202,5.271,12.709,6.856
			c4.669,1.682,9.453,2.905,14.192,3.607c4.739,0.704,9.432,0.868,13.907,0.536c8.971-0.644,16.982-3.303,23.324-6.486
			c6.363-3.187,11.112-6.817,14.181-9.489c1.537-1.34,2.659-2.45,3.371-3.191c0.725-0.756,0.985-1.088,0.932-1.029L316.57,164.479z"
			/>
	</g>
	<g>
		<path d="M41.522,174.792c0,0,0.133,0.041,0.392,0.12c0.291,0.081,0.722,0.2,1.284,0.356c1.152,0.304,2.885,0.727,5.13,1.178
			c4.487,0.901,11.035,1.914,18.982,2.283c7.939,0.366,17.283,0.057,27.142-1.559c4.927-0.804,9.977-1.931,15.019-3.414
			c1.266-0.355,2.524-0.751,3.778-1.177l1.89-0.623l1.873-0.687l1.878-0.688l1.853-0.75c1.255-0.521,2.553-1.019,3.775-1.56
			c4.88-2.101,9.724-4.549,14.314-7.178c4.597-2.639,8.973-5.512,12.999-8.577c8.078-6.101,14.794-12.883,19.83-19.273
			c5.058-6.385,8.459-12.332,10.518-16.628c2.068-4.305,2.82-6.949,2.82-6.949s-0.6,2.682-2.43,7.122
			c-1.822,4.433-4.903,10.617-9.663,17.382c-4.736,6.769-11.184,14.073-19.108,20.798c-3.948,3.375-8.272,6.582-12.848,9.566
			c-4.588,2.983-9.368,5.756-14.401,8.269c-1.244,0.636-2.472,1.188-3.708,1.785l-1.895,0.895l-1.916,0.831l-1.914,0.829
			l-1.936,0.765c-1.285,0.52-2.578,1.011-3.88,1.459c-5.188,1.856-10.42,3.346-15.554,4.491
			c-10.273,2.298-20.126,3.197-28.573,3.295c-8.456,0.094-15.512-0.578-20.449-1.276c-2.471-0.349-4.416-0.705-5.759-0.978
			c-0.683-0.147-1.206-0.26-1.558-0.336c-0.38-0.092-0.577-0.14-0.577-0.14L41.522,174.792z"/>
	</g>
	<g>
		<path d="M317.156,424.379c0,0-3.233-4.315-8.754-11.966c-5.517-7.652-13.328-18.637-22.389-32.033
			c-9.035-13.41-19.411-29.187-29.525-46.696c-5.041-8.758-10.036-17.952-14.338-27.661c-1.085-2.423-2.069-4.899-3.026-7.396
			c-0.91-2.512-1.823-5.03-2.738-7.555c-0.913-2.524-1.828-5.054-2.744-7.586l-2.609-7.651l-2.61-7.65
			c-0.83-2.562-1.659-5.121-2.487-7.675c-0.826-2.555-1.65-5.104-2.473-7.646c-0.793-2.551-1.583-5.095-2.37-7.629
			c-1.563-5.07-3.136-10.095-4.587-15.09c-1.465-4.99-2.963-9.905-4.324-14.772c-2.798-9.712-5.395-19.131-7.827-28.071
			c-1.194-4.476-2.356-8.83-3.48-13.041c-1.095-4.219-2.152-8.295-3.167-12.208C189.679,130.718,185,109.667,185,109.667
			s4.693,21.048,12.743,52.374c1.019,3.913,2.079,7.988,3.177,12.206c1.127,4.21,2.292,8.563,3.49,13.038
			c2.438,8.938,5.041,18.355,7.847,28.065c1.365,4.866,2.866,9.779,4.335,14.769c1.455,4.993,3.03,10.016,4.598,15.085
			c0.788,2.533,1.58,5.076,2.375,7.627c0.823,2.541,1.65,5.09,2.479,7.644c0.829,2.553,1.66,5.111,2.492,7.672l2.615,7.647
			l2.614,7.647c0.918,2.531,1.835,5.061,2.75,7.584c0.916,2.523,1.831,5.042,2.743,7.553c0.957,2.491,1.942,4.966,3.028,7.386
			c4.306,9.697,9.305,18.885,14.351,27.636c10.123,17.496,20.508,33.263,29.551,46.663c9.069,13.388,16.888,24.364,22.409,32.012
			c5.525,7.645,8.761,11.955,8.761,11.955L317.156,424.379z"/>
	</g>
</g>
</svg>
