<?xml version="1.0" encoding="utf-8"?>
<!-- Generator: Adobe Illustrator 16.0.4, SVG Export Plug-In . SVG Version: 6.00 Build 0)  -->
<!DOCTYPE svg PUBLIC "-//W3C//DTD SVG 1.1//EN" "http://www.w3.org/Graphics/SVG/1.1/DTD/svg11.dtd">
<svg version="1.1" id="Layer_1" xmlns="http://www.w3.org/2000/svg" xmlns:xlink="http://www.w3.org/1999/xlink" x="0px" y="0px"
	 width="400px" height="400px" viewBox="0 0 400 400" enable-background="new 0 0 400 400" xml:space="preserve">
<path fill="#FFFFFF" stroke="#000000" stroke-miterlimit="10" d="M414.667,192"/>
<path fill="#FFFFFF" stroke="#000000" stroke-miterlimit="10" d="M-12,270"/>
<path fill="none" stroke="#000000" stroke-miterlimit="10" d="M218-18.667"/>
<path fill="none" stroke="#000000" stroke-miterlimit="10" d="M393.333,309.333"/>
<g>
	<g>
		<path d="M402,197.167c3.225,0,3.225-5,0-5S398.775,197.167,402,197.167L402,197.167z"/>
	</g>
</g>
<g>
	<path fill="none" d="M42.667,83.333"/>
</g>
<g>
	<path fill="none" d="M344,333.333"/>
</g>
<g>
	<g>
		
			<line fill="none" stroke="#424140" stroke-width="44.5" stroke-miterlimit="10" x1="103.672" y1="102.229" x2="419.333" y2="200"/>
		<g>
			<polygon fill="#424140" points="102.946,148.458 42.665,83.338 129.204,63.684 			"/>
		</g>
	</g>
</g>
<g>
	<path fill="#FFFFFF" d="M177.333,394.667"/>
</g>
<g>
	<path fill="#FFFFFF" d="M426.667,200"/>
</g>
<g>
	<path fill="#FFFFFF" d="M219.333,6c0,0-14.001,45.354,30.667,93c40,42.667,179.333,93,179.333,93"/>
	<g>
		<path fill="none" stroke="#424140" stroke-width="17" stroke-miterlimit="10" d="M217.498,30.332
			C218.796,47.957,225.757,73.141,250,99c40,42.667,179.333,93,179.333,93"/>
		<g>
			<polygon fill="#424140" points="200.869,34.431 219.331,6 234.727,36.205 			"/>
		</g>
	</g>
</g>
<g>
	<path fill="#FFFFFF" d="M14,262.667c0,0,123.81-55.39,197.333-70.667c51.334-10.667,215.334,5.333,215.334,5.333"/>
	<g>
		<path fill="none" stroke="#424140" stroke-width="15.5" stroke-miterlimit="10" d="M34.404,253.812
			C72.631,237.532,156.147,203.467,211.333,192c51.334-10.667,215.334,5.333,215.334,5.333"/>
		<g>
			<polygon fill="#424140" points="44.699,266.271 14,262.668 32.469,237.882 			"/>
		</g>
	</g>
</g>
<g>
	<path fill="#FFFFFF" d="M353.333,78c0,0-24.666,5.333-20,41.333c3.561,27.469,96,80.667,96,80.667"/>
	<g>
		<path fill="none" stroke="#424140" stroke-width="15" stroke-miterlimit="10" d="M336.83,91.847
			c-3.197,6.167-5.119,14.975-3.497,27.486c3.561,27.469,96,80.667,96,80.667"/>
		<g>
			<polygon fill="#424140" points="324.258,85.029 353.332,77.999 344.886,106.695 			"/>
		</g>
	</g>
</g>
<g>
	<g>
		<path fill="none" stroke="#424140" stroke-width="42" stroke-miterlimit="10" d="M189.613,336.446
			c13.641-42.03,36.218-94.212,67.72-110.946c48-25.5,172-22.833,172-22.833"/>
		<g>
			<polygon fill="#424140" points="233.753,335.977 174.004,394.668 153.042,313.576 			"/>
		</g>
	</g>
</g>
</svg>
