<?xml version="1.0" encoding="utf-8"?>
<!-- Generator: Adobe Illustrator 16.0.4, SVG Export Plug-In . SVG Version: 6.00 Build 0)  -->
<!DOCTYPE svg PUBLIC "-//W3C//DTD SVG 1.1//EN" "http://www.w3.org/Graphics/SVG/1.1/DTD/svg11.dtd">
<svg version="1.1" xmlns="http://www.w3.org/2000/svg" xmlns:xlink="http://www.w3.org/1999/xlink" x="0px" y="0px" width="370px"
	 height="480px" viewBox="0 0 370 480" enable-background="new 0 0 370 480" xml:space="preserve">
<g id="Layer_1" display="none">
	
		<ellipse display="inline" fill="#FFFFFF" stroke="#000000" stroke-width="0.25" stroke-miterlimit="10" cx="185" cy="294.833" rx="185" ry="185.167"/>
	<g display="inline">
		<g>
			<path d="M358.001,424.833c3.225,0,3.225-5,0-5S354.776,424.833,358.001,424.833L358.001,424.833z"/>
		</g>
	</g>
	<g display="inline">
		<g>
			<path d="M308.668,466.167c3.225,0,3.225-5,0-5S305.443,466.167,308.668,466.167L308.668,466.167z"/>
		</g>
	</g>
	<g display="inline">
		<g>
			<path d="M333.335,439.5c3.225,0,3.225-5,0-5S330.11,439.5,333.335,439.5L333.335,439.5z"/>
		</g>
	</g>
	<g display="inline">
		<g>
			<path d="M388.668,362.833c3.225,0,3.225-5,0-5S385.443,362.833,388.668,362.833L388.668,362.833z"/>
		</g>
	</g>
	<g display="inline">
		<g>
			<path d="M406.668,266.833c3.225,0,3.225-5,0-5S403.443,266.833,406.668,266.833L406.668,266.833z"/>
		</g>
	</g>
	<g display="inline">
		<g>
			<path d="M339.335,123.5c3.225,0,3.225-5,0-5S336.11,123.5,339.335,123.5L339.335,123.5z"/>
		</g>
	</g>
	<g display="inline">
		<g>
			<path d="M187.335,65.5c3.225,0,3.225-5,0-5C184.111,60.5,184.111,65.5,187.335,65.5L187.335,65.5z"/>
		</g>
	</g>
	<g display="inline">
		<g>
			<path d="M2.668,137.5c3.224,0,3.224-5,0-5S-0.556,137.5,2.668,137.5L2.668,137.5z"/>
		</g>
	</g>
	<g display="inline">
		<g>
			<path d="M-27.332,362.167c3.224,0,3.224-5,0-5S-30.556,362.167-27.332,362.167L-27.332,362.167z"/>
		</g>
	</g>
	<g display="inline">
		<g>
			<path d="M152.668,518.833c3.224,0,3.224-5,0-5S149.444,518.833,152.668,518.833L152.668,518.833z"/>
		</g>
	</g>
</g>
<g id="Layer_2">
	<g>
		<line fill="none" x1="233.93" y1="128.445" x2="233.93" y2="128.445"/>
	</g>
	<g>
		<path d="M57.175,161.397c0,0,0.905,0.965,2.601,2.775c1.759,1.85,4.388,4.581,7.794,8.03c6.814,6.895,16.737,16.674,29.065,27.935
			c12.325,11.254,27.069,23.997,43.589,36.463c8.26,6.227,16.988,12.317,26.074,18.001c8.98,5.642,18.35,10.528,28.349,14.45
			c9.971,3.952,20.408,7.022,30.942,9.26c10.534,2.246,21.161,3.659,31.545,4.41c20.785,1.511,40.538,0.448,57.348-1.568
			c16.832-2.009,30.76-4.938,40.426-7.299c9.671-2.374,15.091-4.188,15.091-4.188s-5.148,2.474-14.508,6.056
			c-9.357,3.566-22.932,8.256-39.722,12.429c-16.776,4.174-36.805,7.823-58.763,8.979c-10.972,0.577-22.418,0.504-34.079-0.488
			c-11.657-0.986-23.531-2.896-35.254-5.916c-5.86-1.509-11.684-3.285-17.402-5.366c-1.44-0.512-2.931-1.11-4.394-1.666
			l-1.102-0.426l-0.988-0.402l-1.965-0.802l-0.982-0.4l-0.491-0.2l-0.669-0.302l-2.031-0.894c-1.351-0.6-2.715-1.183-4.049-1.797
			c-10.683-4.91-20.866-10.24-30.473-15.715c-19.21-10.964-36.306-22.299-50.668-32.38c-14.361-10.089-25.994-18.938-34.093-25.269
			c-4.049-3.167-7.213-5.707-9.384-7.472c-2.214-1.826-3.395-2.8-3.395-2.8L57.175,161.397z"/>
	</g>
	<g>
		<path d="M135.284,476.563c0,0,0.047-0.393,0.138-1.153c0.095-0.688,0.236-1.708,0.419-3.038c0.381-2.603,0.973-6.333,1.839-11.021
			c1.741-9.372,4.541-22.595,9.176-38.196c2.316-7.798,5.142-16.184,8.596-24.931c3.457-8.742,7.557-17.855,12.662-26.977
			c2.499-4.572,5.363-9.113,8.403-13.617c1.6-2.226,3.132-4.482,4.889-6.657c0.87-1.09,1.681-2.205,2.605-3.271
			c0.916-1.066,1.834-2.136,2.754-3.206l0.993-1.16l0.668-0.675l1.338-1.352l1.339-1.353l0.671-0.678l0.336-0.339l0.418-0.385
			l3.375-3.063l1.694-1.515c0.563-0.494,1.105-0.889,1.66-1.337c2.212-1.728,4.389-3.525,6.677-5.063l3.393-2.385
			c1.134-0.782,2.301-1.485,3.448-2.229c9.213-5.877,18.705-10.785,28.159-15.129c9.458-4.335,18.888-8.089,28.072-11.432
			c18.37-6.684,35.78-11.675,50.75-15.608c7.486-1.963,14.38-3.607,20.495-5.016c6.116-1.404,11.46-2.552,15.869-3.451
			c8.816-1.807,13.88-2.661,13.88-2.661s-4.91,1.509-13.392,4.443c-4.241,1.463-9.371,3.292-15.22,5.471
			c-5.848,2.183-12.42,4.695-19.518,7.592c-14.187,5.795-30.578,12.931-47.406,21.693c-8.409,4.377-16.93,9.147-25.241,14.369
			c-8.303,5.222-16.415,10.901-23.772,17.095c-0.912,0.779-1.859,1.527-2.739,2.327l-2.609,2.409
			c-1.788,1.566-3.343,3.274-4.965,4.915c-0.389,0.41-0.834,0.828-1.177,1.229l-1.005,1.19l-2.014,2.338l-0.253,0.291l-0.289,0.379
			l-0.576,0.76l-1.151,1.517l-1.149,1.514l-0.573,0.756c0.58-0.694,0.128-0.142,0.242-0.274l-0.057,0.089l-0.114,0.176l-0.229,0.353
			c-0.608,0.936-1.216,1.868-1.822,2.799c-0.612,0.921-1.145,1.926-1.719,2.876c-1.163,1.887-2.162,3.916-3.214,5.862
			c-1.983,4.01-3.848,8.028-5.434,12.154c-3.259,8.184-5.756,16.48-7.754,24.48c-1.998,8.003-3.516,15.711-4.653,22.891
			c-2.281,14.363-3.227,26.527-3.666,34.949c-0.216,4.214-0.299,7.498-0.329,9.682c-0.004,1.064-0.008,1.88-0.011,2.43
			c0.009,0.478,0.014,0.724,0.014,0.724L135.284,476.563z"/>
	</g>
	<g>
		<path d="M184.997,102.555c0,0-0.013,0.255-0.039,0.749c-0.017,0.526-0.042,1.306-0.076,2.323c-0.046,2.054-0.07,5.097,0.04,8.98
			c0.226,7.759,0.953,18.915,3.293,32.074c1.175,6.575,2.76,13.644,4.934,20.97c2.177,7.322,4.93,14.913,8.482,22.432
			c3.548,7.517,7.883,14.97,13.113,21.939c5.232,6.959,11.387,13.414,18.306,18.932c6.927,5.499,14.663,10.082,22.586,13.952
			c7.938,3.866,16.099,7.009,24.135,9.643c16.096,5.25,31.675,8.473,45.091,10.646c13.433,2.156,24.743,3.232,32.666,3.818
			c7.927,0.577,12.473,0.653,12.473,0.653s-4.545,0.086-12.497-0.209c-7.949-0.304-19.311-0.978-32.87-2.661
			c-13.547-1.704-29.324-4.379-45.824-9.117c-8.241-2.38-16.66-5.278-24.948-8.955c-8.276-3.688-16.443-8.122-23.965-13.666
			c-7.498-5.551-14.193-12.15-19.954-19.296c-5.752-7.158-10.57-14.848-14.552-22.607c-3.986-7.764-7.126-15.604-9.651-23.169
			c-2.521-7.57-4.414-14.875-5.862-21.672c-2.887-13.607-4.026-25.164-4.532-33.274c-0.249-4.059-0.332-7.266-0.354-9.47
			c0-1.112-0.001-1.964-0.001-2.539c0.012-0.605,0.018-0.918,0.018-0.918L184.997,102.555z"/>
	</g>
	<g>
		<path d="M5.386,352.222c0,0,5.767-0.977,15.858-2.686c10.082-1.737,24.485-4.221,41.769-7.2
			c8.632-1.539,17.984-3.205,27.875-4.969c4.945-0.886,10.025-1.795,15.217-2.726c5.188-0.944,10.51-1.836,15.868-2.928
			c10.742-2.105,21.842-4.282,33.121-6.493l1.059-0.208c0.285-0.057,0.682-0.162,1.018-0.241l2.104-0.511
			c1.404-0.341,2.81-0.683,4.218-1.024c2.817-0.684,5.642-1.37,8.472-2.058c5.661-1.374,11.344-2.755,17.027-4.135
			c11.357-2.791,22.76-5.425,33.87-8.407c11.137-2.898,22.098-5.751,32.704-8.511c10.607-2.768,20.86-5.442,30.584-7.979
			c9.711-2.593,18.893-5.045,27.368-7.309c16.947-4.54,31.07-8.323,40.957-10.972c9.88-2.673,15.525-4.199,15.525-4.199
			s-5.616,1.632-15.444,4.488c-9.835,2.833-23.886,6.881-40.746,11.737c-8.433,2.422-17.567,5.045-27.229,7.819
			c-9.681,2.72-19.89,5.588-30.45,8.556c-10.565,2.961-21.482,6.021-32.575,9.131c-11.075,3.195-22.419,6.04-33.726,9.044
			c-5.656,1.486-11.313,2.973-16.948,4.453c-2.817,0.74-5.629,1.479-8.433,2.216c-1.402,0.368-2.801,0.735-4.199,1.103l-2.094,0.551
			c-0.364,0.093-0.662,0.181-1.081,0.276l-1.057,0.229c-11.276,2.431-22.373,4.822-33.111,7.138
			c-5.367,1.198-10.664,2.188-15.841,3.23c-5.179,1.027-10.246,2.033-15.178,3.013c-9.867,1.949-19.195,3.793-27.806,5.494
			c-17.239,3.305-31.604,6.059-41.66,7.986c-10.058,1.897-15.805,2.981-15.805,2.981L5.386,352.222z"/>
	</g>
	<g>
		<path d="M311.144,159.601c0,0-0.101,0.099-0.296,0.29c-0.208,0.215-0.518,0.534-0.922,0.949c-0.809,0.853-1.987,2.144-3.413,3.863
			c-2.839,3.437-6.728,8.589-10.288,15.378c-1.767,3.394-3.438,7.197-4.745,11.359c-1.289,4.16-2.232,8.684-2.451,13.412
			c-0.244,4.723,0.246,9.641,1.576,14.448c0.653,2.392,1.537,4.806,2.573,7.06c0.285,0.584,0.564,1.217,0.854,1.762
			c0.299,0.548,0.558,1.1,0.888,1.65c0.627,1.107,1.292,2.196,2.013,3.252c2.861,4.24,6.41,8.042,10.291,11.36
			c3.882,3.322,8.091,6.166,12.343,8.617c8.524,4.901,17.184,8.247,24.712,10.667c7.545,2.411,14.007,3.879,18.546,4.779
			c4.544,0.897,7.176,1.22,7.176,1.22s-2.643-0.212-7.229-0.921c-4.582-0.712-11.116-1.91-18.808-4.019
			c-7.678-2.121-16.556-5.122-25.474-9.764c-4.449-2.324-8.903-5.063-13.09-8.354c-4.183-3.284-8.099-7.129-11.355-11.544
			c-0.819-1.099-1.585-2.24-2.312-3.406c-0.373-0.57-0.709-1.202-1.064-1.801c-0.354-0.609-0.63-1.175-0.948-1.763
			c-1.271-2.491-2.298-4.991-3.131-7.596c-1.666-5.184-2.43-10.581-2.373-15.781c0.029-5.208,0.86-10.2,2.078-14.78
			c1.235-4.583,2.874-8.761,4.625-12.486c3.528-7.451,7.445-13.102,10.345-16.921c1.457-1.91,2.677-3.361,3.537-4.347
			c0.441-0.493,0.779-0.871,1.008-1.125c0.252-0.269,0.383-0.407,0.383-0.407L311.144,159.601z"/>
	</g>
</g>
</svg>
