<?xml version="1.0" encoding="utf-8"?>
<!-- Generator: Adobe Illustrator 16.0.4, SVG Export Plug-In . SVG Version: 6.00 Build 0)  -->
<!DOCTYPE svg PUBLIC "-//W3C//DTD SVG 1.1//EN" "http://www.w3.org/Graphics/SVG/1.1/DTD/svg11.dtd">
<svg version="1.1" id="Layer_1" xmlns="http://www.w3.org/2000/svg" xmlns:xlink="http://www.w3.org/1999/xlink" x="0px" y="0px"
	 width="400px" height="400px" viewBox="0 0 400 400" enable-background="new 0 0 400 400" xml:space="preserve">
<path fill="#FFFFFF" stroke="#000000" stroke-miterlimit="10" d="M414.667,192"/>
<path fill="#FFFFFF" stroke="#000000" stroke-miterlimit="10" d="M-12,270"/>
<path fill="none" stroke="#000000" stroke-miterlimit="10" d="M218-18.667"/>
<path fill="none" stroke="#000000" stroke-miterlimit="10" d="M393.333,309.333"/>
<g>
	<g>
		<path d="M338.667,351.833c3.225,0,3.225-5,0-5S335.442,351.833,338.667,351.833L338.667,351.833z"/>
	</g>
</g>
<g>
	<g>
		<path d="M353.333,335.833c3.225,0,3.225-5,0-5S350.108,335.833,353.333,335.833L353.333,335.833z"/>
	</g>
</g>
<g>
	<path fill="none" d="M42.667,83.333"/>
</g>
<g>
	<path fill="none" d="M344,333.333"/>
</g>
<g>
	<path fill="none" d="M419.333,200"/>
</g>
<g>
	<path fill="none" d="M42.667,83.333"/>
</g>
<g>
	<path fill="#FFFFFF" d="M177.333,394.667"/>
</g>
<g>
	<path fill="#FFFFFF" d="M426.667,200"/>
</g>
<g>
	<path fill="#FFFFFF" d="M429.333,192"/>
</g>
<g>
	<path fill="#FFFFFF" d="M250,99"/>
</g>
<g>
	<path fill="#FFFFFF" d="M219.333,6"/>
</g>
<g>
	<path fill="#FFFFFF" d="M429.333,200"/>
</g>
<g>
	<path fill="none" d="M372,65.333"/>
</g>
<g>
	<path fill="none" d="M10.665,264.605"/>
</g>
<g>
	<path fill="none" d="M372,60"/>
</g>
<g>
	<path fill="none" d="M42.667,83.333"/>
</g>
<g>
	<path fill="none" d="M222.667-18.667"/>
</g>
<g>
	<path fill="none" d="M170.667,394.667"/>
</g>
<g>
	<g>
		<path fill="none" stroke="#3D3D3D" stroke-width="45" stroke-miterlimit="10" d="M73.558,249.929
			c39.118-6.161,88.932-8.363,126.442,9.29c35.384,16.653,153.333,93.448,153.333,93.448"/>
		<g>
			<polygon fill="#3D3D3D" points="96.224,291.671 10.666,264.609 76.877,204.035 			"/>
		</g>
	</g>
</g>
<g>
	<g>
		<path fill="none" stroke="#3D3D3D" stroke-width="18.5" stroke-miterlimit="10" d="M331.137,90.642
			c-25.673,16.603-64.073,50.446-69.849,106.692c-5.955,58,82.712,159.333,82.712,159.333"/>
		<g>
			<polygon fill="#3D3D3D" points="317.598,77.434 354.484,77.999 335.554,109.665 			"/>
		</g>
	</g>
</g>
<g>
	<g>
		<path fill="none" stroke="#3D3D3D" stroke-width="17" stroke-miterlimit="10" d="M177.106,370.56
			c6.137-14.051,21.013-30.97,56.228-41.227c56.977-16.595,115.908,20,115.908,20"/>
		<g>
			<polygon fill="#3D3D3D" points="195.648,369.146 173.335,394.667 162.386,362.582 			"/>
		</g>
	</g>
</g>
<g>
	<g>
		<path fill="none" stroke="#3D3D3D" stroke-width="16" stroke-miterlimit="10" d="M205.662,24.451
			C186.856,53.408,157.921,113.553,181.999,184C218,289.333,354.485,343.333,354.485,343.333"/>
		<g>
			<polygon fill="#3D3D3D" points="190.183,18.973 219.332,5.999 215.996,37.732 			"/>
		</g>
	</g>
</g>
</svg>
