<?xml version="1.0" encoding="utf-8"?>
<!-- Generator: Adobe Illustrator 16.0.4, SVG Export Plug-In . SVG Version: 6.00 Build 0)  -->
<!DOCTYPE svg PUBLIC "-//W3C//DTD SVG 1.1//EN" "http://www.w3.org/Graphics/SVG/1.1/DTD/svg11.dtd">
<svg version="1.1" xmlns="http://www.w3.org/2000/svg" xmlns:xlink="http://www.w3.org/1999/xlink" x="0px" y="0px" width="370px"
	 height="480px" viewBox="0 0 370 480" enable-background="new 0 0 370 480" xml:space="preserve">
<g id="Layer_1" display="none">
	
		<ellipse display="inline" fill="#FFFFFF" stroke="#000000" stroke-width="0.25" stroke-miterlimit="10" cx="185" cy="294.833" rx="185" ry="185.167"/>
	<g display="inline">
		<g>
			<path d="M358.001,424.833c3.225,0,3.225-5,0-5S354.776,424.833,358.001,424.833L358.001,424.833z"/>
		</g>
	</g>
	<g display="inline">
		<g>
			<path d="M308.668,466.167c3.225,0,3.225-5,0-5S305.443,466.167,308.668,466.167L308.668,466.167z"/>
		</g>
	</g>
	<g display="inline">
		<g>
			<path d="M333.335,439.5c3.225,0,3.225-5,0-5S330.11,439.5,333.335,439.5L333.335,439.5z"/>
		</g>
	</g>
	<g display="inline">
		<g>
			<path d="M388.668,362.833c3.225,0,3.225-5,0-5S385.443,362.833,388.668,362.833L388.668,362.833z"/>
		</g>
	</g>
	<g display="inline">
		<g>
			<path d="M406.668,266.833c3.225,0,3.225-5,0-5S403.443,266.833,406.668,266.833L406.668,266.833z"/>
		</g>
	</g>
	<g display="inline">
		<g>
			<path d="M339.335,123.5c3.225,0,3.225-5,0-5S336.11,123.5,339.335,123.5L339.335,123.5z"/>
		</g>
	</g>
	<g display="inline">
		<g>
			<path d="M187.335,65.5c3.225,0,3.225-5,0-5C184.111,60.5,184.111,65.5,187.335,65.5L187.335,65.5z"/>
		</g>
	</g>
	<g display="inline">
		<g>
			<path d="M2.668,137.5c3.224,0,3.224-5,0-5S-0.556,137.5,2.668,137.5L2.668,137.5z"/>
		</g>
	</g>
	<g display="inline">
		<g>
			<path d="M-27.332,362.167c3.224,0,3.224-5,0-5S-30.556,362.167-27.332,362.167L-27.332,362.167z"/>
		</g>
	</g>
	<g display="inline">
		<g>
			<path d="M152.668,518.833c3.224,0,3.224-5,0-5S149.444,518.833,152.668,518.833L152.668,518.833z"/>
		</g>
	</g>
</g>
<g id="Layer_2">
	<g>
		<line fill="none" x1="233.93" y1="128.445" x2="233.93" y2="128.445"/>
	</g>
	<g>
		<path d="M3.625,331.409c0,0,0.375-0.074,1.104-0.219c0.667-0.122,1.656-0.303,2.947-0.54c2.543-0.451,6.22-1.074,10.883-1.791
			c9.327-1.429,22.595-3.243,38.627-4.668c16.031-1.401,34.831-2.472,55.219-1.822c10.192,0.34,20.79,1.143,31.603,2.782
			c5.409,0.838,10.872,1.895,16.349,3.263c2.742,0.715,5.48,1.45,8.22,2.347c0.684,0.211,1.368,0.435,2.052,0.676l2.203,0.754
			l3.628,1.383l3.628,1.382l3.798,1.541l3.79,1.546l3.674,1.605l3.652,1.605c1.203,0.561,2.403,1.119,3.604,1.678
			c2.397,1.113,4.777,2.237,7.113,3.423c9.385,4.647,18.362,9.614,26.839,14.699c16.956,10.172,31.903,20.807,44.266,30.4
			c12.364,9.598,22.15,18.159,28.842,24.3c6.691,6.144,10.29,9.869,10.29,9.869s-4.091-3.181-11.545-8.293
			c-7.452-5.108-18.272-12.149-31.663-19.787c-13.383-7.636-29.35-15.868-46.921-23.268c-8.781-3.699-17.96-7.188-27.376-10.287
			c-2.346-0.8-4.72-1.532-7.103-2.25l-3.573-1.083l-3.6-1.005l-3.597-0.997l-3.553-0.889l-3.553-0.889l-3.787-0.856l-3.787-0.856
			c-0.076-0.021,0.228,0.074,0.05,0.025l-0.106-0.02l-0.211-0.038l-0.422-0.077l-0.843-0.154c-0.558-0.109-1.125-0.203-1.696-0.288
			c-2.26-0.382-4.583-0.639-6.893-0.888c-4.652-0.44-9.371-0.643-14.092-0.664c-9.458-0.012-18.909,0.668-28.066,1.732
			c-18.33,2.15-35.459,5.703-50.01,9.204c-14.56,3.521-26.573,7.035-34.871,9.609c-4.149,1.288-7.373,2.345-9.525,3.07
			c-1.055,0.362-1.864,0.64-2.409,0.827c-0.482,0.175-0.73,0.265-0.73,0.265L3.625,331.409z"/>
	</g>
	<g>
		<path d="M309.271,158.269c0,0-0.203,0.191-0.596,0.56c-0.406,0.395-1.01,0.98-1.797,1.744c-1.573,1.552-3.872,3.874-6.718,6.921
			c-5.683,6.095-13.597,15.084-22.034,26.664c-8.4,11.572-17.411,25.774-24.266,42.216c-3.39,8.215-6.242,16.984-7.904,26.12
			c-1.708,9.125-2.154,18.602-0.992,27.961c1.139,9.397,3.521,18.707,6.561,27.646c3.048,8.943,6.732,17.542,10.671,25.688
			c7.902,16.297,16.777,30.798,24.819,42.906c8.059,12.111,15.339,21.832,20.553,28.537c5.219,6.704,8.387,10.39,8.387,10.39
			s-3.296-3.57-8.756-10.092c-5.454-6.524-13.087-15.993-21.602-27.854c-8.499-11.863-17.935-26.108-26.515-42.311
			c-4.278-8.103-8.332-16.698-11.778-25.745c-3.436-9.044-6.252-18.562-7.804-28.415c-1.588-9.887-1.467-20.051,0.003-29.776
			c1.423-9.748,4.104-19.082,7.351-27.813c6.573-17.471,15.403-32.508,23.667-44.787c8.304-12.283,16.141-21.845,21.816-28.382
			c2.843-3.268,5.156-5.777,6.766-7.48c0.817-0.852,1.444-1.504,1.867-1.944c0.448-0.453,0.68-0.686,0.68-0.686L309.271,158.269z"/>
	</g>
	<g>
		<path d="M152.262,481.453c0,0,0.105-0.196,0.311-0.575c0.196-0.352,0.483-0.854,0.863-1.479c0.76-1.253,1.896-3.02,3.437-5.165
			c3.075-4.288,7.798-10.089,14.181-16.266c6.367-6.185,14.403-12.715,23.663-18.64c4.625-2.967,9.546-5.789,14.663-8.4
			c5.12-2.605,10.421-5.037,15.836-7.157c5.384-2.156,11.126-3.899,16.737-5.078c5.637-1.197,11.259-1.903,16.701-2.221
			c10.897-0.643,21.041,0.271,29.571,1.678c8.541,1.412,15.496,3.316,20.289,4.828c4.797,1.517,7.44,2.644,7.44,2.644
			s-2.703-0.979-7.561-2.224c-4.854-1.239-11.87-2.745-20.385-3.672c-8.503-0.923-18.527-1.258-29.08-0.045
			c-5.271,0.603-10.666,1.589-16.009,3.038c-5.371,1.451-10.553,3.34-15.702,5.729c-5.155,2.343-10.164,4.976-14.97,7.754
			c-4.803,2.784-9.385,5.75-13.657,8.825c-8.556,6.143-15.833,12.747-21.493,18.866c-5.675,6.113-9.746,11.717-12.306,15.726
			c-1.283,2.005-2.196,3.612-2.773,4.691c-0.29,0.54-0.492,0.945-0.621,1.208c-0.112,0.238-0.17,0.361-0.17,0.361L152.262,481.453z"
			/>
	</g>
	<g>
		<path d="M45.98,171.741c0,0,1.201,0.832,3.453,2.391c2.23,1.57,5.501,3.874,9.665,6.806c8.293,5.9,20.082,14.399,34.008,24.9
			c6.962,5.251,14.458,11.005,22.303,17.2c7.843,6.199,16.047,12.825,24.379,19.88c8.32,7.069,16.822,14.501,25.123,22.459
			c4.174,3.94,8.248,8.127,12.26,12.244c4.033,4.131,8.083,8.279,12.132,12.427c8.13,8.257,16.124,16.676,24.021,24.927
			c3.943,4.13,7.855,8.227,11.721,12.274c3.835,4.073,7.623,8.098,11.35,12.056c3.726,3.957,7.39,7.85,10.976,11.658
			c3.563,3.83,7.05,7.578,10.444,11.226c6.784,7.298,13.207,14.189,19.08,20.603c5.88,6.405,11.271,12.277,16.048,17.482
			c4.759,5.223,8.906,9.775,12.322,13.524c6.803,7.524,10.69,11.824,10.69,11.824s-4.002-4.193-11.005-11.531
			c-3.516-3.655-7.784-8.094-12.681-13.186c-4.915-5.073-10.461-10.796-16.511-17.04c-6.042-6.25-12.646-12.964-19.622-20.073
			c-3.489-3.554-7.074-7.204-10.738-10.935c-3.686-3.709-7.45-7.499-11.279-11.353s-7.722-7.771-11.662-11.736
			c-3.967-3.937-7.982-7.921-12.03-11.937c-8.103-8.022-16.297-16.199-24.654-24.241c-4.16-4.037-8.319-8.074-12.462-12.095
			c-4.158-4.042-8.215-7.993-12.443-11.775c-8.383-7.615-16.997-14.745-25.425-21.523c-8.442-6.767-16.761-13.123-24.712-19.067
			c-7.955-5.94-15.556-11.456-22.614-16.487c-14.119-10.062-26.066-18.195-34.458-23.831c-4.207-2.796-7.513-4.994-9.767-6.492
			c-2.256-1.474-3.459-2.26-3.459-2.26L45.98,171.741z"/>
	</g>
</g>
</svg>
