<?xml version="1.0" encoding="utf-8"?>
<!-- Generator: Adobe Illustrator 16.0.4, SVG Export Plug-In . SVG Version: 6.00 Build 0)  -->
<!DOCTYPE svg PUBLIC "-//W3C//DTD SVG 1.1//EN" "http://www.w3.org/Graphics/SVG/1.1/DTD/svg11.dtd">
<svg version="1.1" xmlns="http://www.w3.org/2000/svg" xmlns:xlink="http://www.w3.org/1999/xlink" x="0px" y="0px" width="370px"
	 height="480px" viewBox="0 0 370 480" enable-background="new 0 0 370 480" xml:space="preserve">
<g id="Layer_1" display="none">
	
		<ellipse display="inline" fill="#FFFFFF" stroke="#000000" stroke-width="0.25" stroke-miterlimit="10" cx="185" cy="294.833" rx="185" ry="185.167"/>
	<g display="inline">
		<g>
			<path d="M358.001,424.833c3.225,0,3.225-5,0-5S354.776,424.833,358.001,424.833L358.001,424.833z"/>
		</g>
	</g>
	<g display="inline">
		<g>
			<path d="M308.668,466.167c3.225,0,3.225-5,0-5S305.443,466.167,308.668,466.167L308.668,466.167z"/>
		</g>
	</g>
	<g display="inline">
		<g>
			<path d="M333.335,439.5c3.225,0,3.225-5,0-5S330.11,439.5,333.335,439.5L333.335,439.5z"/>
		</g>
	</g>
	<g display="inline">
		<g>
			<path d="M388.668,362.833c3.225,0,3.225-5,0-5S385.443,362.833,388.668,362.833L388.668,362.833z"/>
		</g>
	</g>
	<g display="inline">
		<g>
			<path d="M406.668,266.833c3.225,0,3.225-5,0-5S403.443,266.833,406.668,266.833L406.668,266.833z"/>
		</g>
	</g>
	<g display="inline">
		<g>
			<path d="M339.335,123.5c3.225,0,3.225-5,0-5S336.11,123.5,339.335,123.5L339.335,123.5z"/>
		</g>
	</g>
	<g display="inline">
		<g>
			<path d="M187.335,65.5c3.225,0,3.225-5,0-5C184.111,60.5,184.111,65.5,187.335,65.5L187.335,65.5z"/>
		</g>
	</g>
	<g display="inline">
		<g>
			<path d="M2.668,137.5c3.224,0,3.224-5,0-5S-0.556,137.5,2.668,137.5L2.668,137.5z"/>
		</g>
	</g>
	<g display="inline">
		<g>
			<path d="M-27.332,362.167c3.224,0,3.224-5,0-5S-30.556,362.167-27.332,362.167L-27.332,362.167z"/>
		</g>
	</g>
	<g display="inline">
		<g>
			<path d="M152.668,518.833c3.224,0,3.224-5,0-5S149.444,518.833,152.668,518.833L152.668,518.833z"/>
		</g>
	</g>
</g>
<g id="Layer_2">
	<g>
		<line fill="none" x1="233.93" y1="128.445" x2="233.93" y2="128.445"/>
	</g>
	<g>
		<path d="M223.081,106.573c-0.001,0.003-0.045,0.112-0.072,0.137c-0.04,0.066-0.134,0.271-0.252,0.531
			c-0.249,0.57-0.618,1.415-1.1,2.518c-0.976,2.292-2.412,5.783-4.163,10.312c-3.494,9.053-8.287,22.288-12.894,38.312
			c-2.294,8.006-4.539,16.711-6.432,25.865c-1.881,9.143-3.451,18.77-4.216,28.409c-0.374,4.809-0.585,9.644-0.476,14.332
			c0.023,2.368,0.18,4.652,0.347,6.941c0.211,2.25,0.465,4.48,0.826,6.611c0.715,4.268,1.776,8.202,3.169,11.617l0.062,0.164
			c0.053,0.095-0.372-0.566-0.161-0.225l0.063,0.125l0.254,0.503l0.507,1.006l1.016,2.013l1.559,3.078l1.844,3.277l1.989,3.259
			c5.467,8.641,12.348,16.771,20.117,24.134c7.768,7.37,16.406,13.971,25.331,19.771c8.93,5.805,18.144,10.819,27.176,15.137
			c9.035,4.321,17.897,7.934,26.224,10.981c16.668,6.091,31.167,9.894,41.384,12.231c10.231,2.329,16.207,3.191,16.207,3.191
			s-6.015,0.438-16.619,0.351c-10.601-0.104-25.802-0.71-44.063-3.182c-9.128-1.242-19.021-2.948-29.443-5.391
			c-10.421-2.442-21.379-5.604-32.567-9.814c-11.181-4.213-22.604-9.481-33.774-16.195c-11.157-6.705-22.071-14.887-31.899-24.715
			l-3.632-3.753c-1.179-1.303-2.344-2.559-3.534-3.918l-3.562-4.29l-1.422-1.749l-0.711-0.874l-0.355-0.437l-0.089-0.109
			c0.161,0.263-0.319-0.477-0.31-0.462l-0.222-0.317c-4.848-6.772-8.446-13.874-11.243-20.859
			c-1.401-3.499-2.575-6.971-3.645-10.425c-1.012-3.435-1.955-6.866-2.703-10.229c-1.566-6.755-2.621-13.328-3.428-19.743
			c-1.583-12.823-2.022-24.936-2-36.294c0.041-11.354,0.604-21.935,1.373-31.639c1.562-19.401,3.938-35.292,5.839-46.497
			c0.957-5.602,1.807-10.027,2.437-13.118c0.336-1.584,0.593-2.799,0.767-3.618c0.222-0.944,0.336-1.431,0.336-1.431
			L223.081,106.573z"/>
	</g>
	<g>
		<path d="M331.621,174.832c0,0-0.013,0.01-0.039,0.031c-0.021,0.016-0.006-0.007-0.012-0.012c-0.017-0.004-0.125,0.075-0.26,0.173
			c-0.275,0.203-0.735,0.561-1.36,1.067c-1.249,1.013-3.162,2.627-5.579,4.79c-4.824,4.324-11.714,10.86-19.13,19.226
			c-3.703,4.18-7.524,8.818-11.196,13.834c-3.661,5.012-7.199,10.412-10.177,16.027c-2.99,5.612-5.418,11.438-6.862,17.138
			c-0.691,2.838-1.208,5.666-1.361,8.401l-0.063,1.032l-0.016,1.018l-0.013,0.514c0.018,0.114-0.17-0.794-0.087-0.361l0.008,0.1
			l0.014,0.198l0.029,0.397l0.116,1.59l0.029,0.397l0.006,0.217l0.007,0.419l-0.004,0.857c0.091,0.736,0.139,1.486,0.249,2.237
			c0.82,6.014,3.048,12.452,6.426,18.678c3.351,6.24,7.714,12.272,12.509,17.843c4.802,5.578,10.031,10.713,15.279,15.366
			c5.253,4.654,10.53,8.832,15.552,12.541c10.057,7.418,19.067,12.955,25.467,16.667c6.411,3.71,10.238,5.586,10.238,5.586
			s-4.189-0.758-11.452-2.596c-7.259-1.849-17.604-4.749-29.821-9.329c-6.106-2.295-12.683-5.014-19.545-8.312
			c-6.86-3.302-14.014-7.177-21.204-11.903c-7.182-4.733-14.426-10.317-21.222-17.224c-6.782-6.88-13.103-15.24-17.763-25.189
			c-0.586-1.238-1.109-2.52-1.658-3.791l-0.807-2.199l-0.723-2.031l-0.545-1.498l-0.137-0.374l-0.068-0.188l-0.034-0.094
			c0.069,0.369-0.133-0.603-0.125-0.554l-0.274-1.042l-0.536-2.093l-0.455-2.094c-1.189-5.604-1.671-11.184-1.767-16.617
			c-0.118-10.865,1.495-21.012,3.775-30.286c2.291-9.295,5.29-17.761,8.462-25.519c3.186-7.752,6.578-14.78,9.906-21.109
			c6.671-12.652,13.049-22.547,17.769-29.464c2.365-3.456,4.323-6.157,5.746-8.054c0.712-0.949,1.288-1.696,1.715-2.235
			c0.237-0.293,0.418-0.516,0.538-0.665c0.085-0.099,0.148-0.173,0.191-0.223c0.02-0.026,0.029-0.04,0.029-0.04L331.621,174.832z"/>
	</g>
	<g>
		<path d="M144.783,475.829c0,0,0.061-0.297,0.179-0.871c0.119-0.536,0.295-1.331,0.526-2.368c0.472-2.049,1.192-5.014,2.209-8.746
			c2.045-7.458,5.235-18.016,10.292-30.284c2.531-6.13,5.56-12.677,9.237-19.393c3.697-6.702,8.058-13.587,13.434-20.16
			c5.372-6.546,11.82-12.824,19.627-17.627c7.729-4.68,16.006-7.959,24.352-10.687c8.359-2.7,16.831-4.758,25.201-6.44
			c8.373-1.678,16.65-2.971,24.673-4.014c16.049-2.071,31.075-3.148,43.952-3.776c12.88-0.615,23.614-0.767,31.125-0.777
			c7.512-0.011,11.8,0.117,11.8,0.117s-4.289,0.124-11.778,0.574c-7.488,0.45-18.179,1.23-30.952,2.595
			c-12.767,1.375-27.628,3.323-43.345,6.298c-7.854,1.494-15.921,3.246-24,5.364c-8.075,2.121-16.173,4.605-23.979,7.645
			c-7.78,3.048-15.356,6.632-21.838,11.106c-6.359,4.438-11.692,10.214-16.156,16.35c-4.466,6.154-8.101,12.678-11.156,19.067
			c-3.04,6.405-5.519,12.684-7.561,18.574c-4.082,11.791-6.528,21.971-8.042,29.082c-0.752,3.561-1.263,6.362-1.585,8.254
			c-0.152,0.937-0.268,1.654-0.347,2.138c-0.065,0.448-0.099,0.679-0.099,0.679L144.783,475.829z"/>
	</g>
	<g>
		<path d="M40.998,180.285c0,0,0.188,0.311,0.553,0.913c0.376,0.604,0.936,1.501,1.665,2.672c1.478,2.338,3.688,5.756,6.603,10.044
			c5.832,8.572,14.481,20.646,25.773,34.415c11.292,13.755,25.234,29.23,41.652,44.254c8.208,7.506,17.034,14.891,26.43,21.819
			c9.385,6.923,19.378,13.413,29.789,18.994c2.648,1.365,5.285,2.784,7.941,4.104c2.672,1.264,5.318,2.571,8.004,3.797
			c2.712,1.177,5.4,2.397,8.116,3.531c2.735,1.087,5.444,2.219,8.177,3.26c10.931,4.169,21.939,7.625,32.727,10.465
			c21.585,5.685,42.25,8.908,60.03,10.7c17.792,1.792,32.718,2.164,43.151,2.113c10.438-0.055,16.392-0.531,16.392-0.531
			s-5.944,0.57-16.389,0.789c-10.438,0.214-25.383,0.077-43.241-1.438c-17.846-1.516-38.623-4.421-60.412-9.794
			c-10.89-2.686-22.023-5.988-33.108-10.019c-2.771-1.006-5.521-2.104-8.298-3.158c-2.759-1.101-5.491-2.29-8.249-3.436
			c-2.738-1.198-5.453-2.486-8.188-3.729c-2.701-1.291-5.342-2.658-8.017-3.984c-21.407-11.063-40.762-25.539-57.598-40.437
			c-16.84-14.931-31.17-30.342-42.798-44.061c-11.628-13.733-20.563-25.797-26.609-34.391c-3.022-4.299-5.322-7.736-6.87-10.101
			c-0.769-1.191-1.357-2.105-1.755-2.721c-0.394-0.628-0.597-0.952-0.597-0.952L40.998,180.285z"/>
	</g>
	<g>
		<path d="M332.537,407.336c0.021,0.01-0.398-0.179-1.006-0.501c-0.628-0.332-1.524-0.832-2.621-1.533
			c-2.178-1.404-5.223-3.598-8.138-7.035c-1.451-1.713-2.849-3.755-3.905-6.139c-1.067-2.369-1.802-5.076-1.919-7.906
			c-0.144-2.827,0.269-5.736,1.128-8.508c0.452-1.384,0.922-2.74,1.606-4.082c0.674-1.338,1.479-2.584,2.392-3.745
			c1.824-2.323,4.028-4.276,6.352-5.917c2.327-1.642,4.778-2.981,7.211-4.108c4.876-2.246,9.664-3.682,13.797-4.692
			c4.138-1.008,7.638-1.579,10.091-1.923c2.454-0.339,3.866-0.443,3.866-0.443s-1.406,0.167-3.839,0.614
			c-2.431,0.451-5.894,1.177-9.956,2.359c-4.055,1.185-8.732,2.821-13.398,5.229c-2.326,1.206-4.645,2.614-6.799,4.282
			c-2.15,1.666-4.136,3.602-5.713,5.808c-0.789,1.097-1.473,2.273-2.013,3.479c-0.548,1.194-0.946,2.52-1.302,3.795
			c-0.676,2.579-0.918,5.19-0.685,7.656c0.21,2.471,0.949,4.77,1.965,6.785c1.005,2.025,2.306,3.763,3.661,5.227
			c2.718,2.937,5.573,4.819,7.594,5.997c1.017,0.589,1.84,1.001,2.396,1.265c0.577,0.272,0.809,0.36,0.83,0.37L332.537,407.336z"/>
	</g>
</g>
</svg>
