<?xml version="1.0" encoding="utf-8"?>
<!-- Generator: Adobe Illustrator 16.0.4, SVG Export Plug-In . SVG Version: 6.00 Build 0)  -->
<!DOCTYPE svg PUBLIC "-//W3C//DTD SVG 1.1//EN" "http://www.w3.org/Graphics/SVG/1.1/DTD/svg11.dtd">
<svg version="1.1" xmlns="http://www.w3.org/2000/svg" xmlns:xlink="http://www.w3.org/1999/xlink" x="0px" y="0px" width="370px"
	 height="480px" viewBox="0 0 370 480" enable-background="new 0 0 370 480" xml:space="preserve">
<g id="Layer_1" display="none">
	
		<ellipse display="inline" fill="#FFFFFF" stroke="#000000" stroke-width="0.25" stroke-miterlimit="10" cx="185" cy="294.833" rx="185" ry="185.167"/>
	<g display="inline">
		<g>
			<path d="M358.001,424.833c3.225,0,3.225-5,0-5S354.776,424.833,358.001,424.833L358.001,424.833z"/>
		</g>
	</g>
	<g display="inline">
		<g>
			<path d="M308.668,466.167c3.225,0,3.225-5,0-5S305.443,466.167,308.668,466.167L308.668,466.167z"/>
		</g>
	</g>
	<g display="inline">
		<g>
			<path d="M333.335,439.5c3.225,0,3.225-5,0-5S330.11,439.5,333.335,439.5L333.335,439.5z"/>
		</g>
	</g>
	<g display="inline">
		<g>
			<path d="M388.668,362.833c3.225,0,3.225-5,0-5S385.443,362.833,388.668,362.833L388.668,362.833z"/>
		</g>
	</g>
	<g display="inline">
		<g>
			<path d="M406.668,266.833c3.225,0,3.225-5,0-5S403.443,266.833,406.668,266.833L406.668,266.833z"/>
		</g>
	</g>
	<g display="inline">
		<g>
			<path d="M339.335,123.5c3.225,0,3.225-5,0-5S336.11,123.5,339.335,123.5L339.335,123.5z"/>
		</g>
	</g>
	<g display="inline">
		<g>
			<path d="M187.335,65.5c3.225,0,3.225-5,0-5C184.111,60.5,184.111,65.5,187.335,65.5L187.335,65.5z"/>
		</g>
	</g>
	<g display="inline">
		<g>
			<path d="M2.668,137.5c3.224,0,3.224-5,0-5S-0.556,137.5,2.668,137.5L2.668,137.5z"/>
		</g>
	</g>
	<g display="inline">
		<g>
			<path d="M-27.332,362.167c3.224,0,3.224-5,0-5S-30.556,362.167-27.332,362.167L-27.332,362.167z"/>
		</g>
	</g>
	<g display="inline">
		<g>
			<path d="M152.668,518.833c3.224,0,3.224-5,0-5S149.444,518.833,152.668,518.833L152.668,518.833z"/>
		</g>
	</g>
</g>
<g id="Layer_2">
	<g>
		<path d="M6.466,344.751c0,0,1.318-0.426,3.79-1.224c2.492-0.816,6.16-2.038,10.821-3.643c9.321-3.209,22.623-7.944,38.429-14.061
			c15.806-6.115,34.122-13.6,53.438-22.304c19.31-8.707,39.635-18.618,59.33-29.635l7.352-4.181
			c2.427-1.429,4.852-2.856,7.271-4.281l1.773-1.058l1.813-1.104c1.208-0.735,2.415-1.47,3.62-2.202
			c2.432-1.459,4.705-2.964,7.057-4.437c9.321-5.978,18.315-12.232,26.787-18.578c16.96-12.689,31.862-25.809,43.937-37.777
			c12.081-11.969,21.356-22.75,27.527-30.544c6.177-7.797,9.257-12.597,9.257-12.597s-2.78,4.979-8.49,13.167
			c-5.704,8.184-14.346,19.57-25.774,32.367c-11.421,12.793-25.655,26.965-42.066,40.883c-8.205,6.966-16.927,13.859-26.081,20.552
			c-2.301,1.646-4.622,3.388-6.937,4.976l-3.479,2.419l-1.743,1.212c-0.312,0.213-0.536,0.381-0.918,0.63l-0.895,0.591
			c-2.391,1.573-4.785,3.148-7.183,4.727l-7.264,4.625c-19.465,12.2-39.579,23.281-58.713,33.086
			c-19.14,9.801-37.316,18.31-53.029,25.308c-15.714,7.001-28.971,12.48-38.309,16.227c-4.669,1.872-8.36,3.31-10.893,4.282
			c-2.561,0.971-3.927,1.487-3.927,1.487L6.466,344.751z"/>
	</g>
	<g>
		<path d="M154.321,477.067c0,0,1.376-5.438,3.784-14.952c2.447-9.494,5.994-23.04,10.479-39.237
			c4.499-16.193,9.894-35.051,16.347-55.084c3.251-10.011,6.75-20.319,10.826-30.663c2.037-5.171,4.236-10.346,6.855-15.446
			c1.34-2.556,2.668-4.926,4.006-7.402c1.352-2.448,2.638-4.917,4.045-7.353c2.814-4.862,5.549-9.783,8.417-14.57
			c2.881-4.779,5.666-9.593,8.583-14.27c5.755-9.404,11.542-18.576,17.215-27.402c5.676-8.823,11.248-17.295,16.568-25.303
			c2.676-3.993,5.279-7.876,7.797-11.633c2.541-3.741,4.996-7.355,7.353-10.825c18.942-27.696,32.073-45.798,32.073-45.798
			s-12.621,18.464-30.771,46.662c-2.257,3.532-4.608,7.21-7.042,11.018c-2.409,3.822-4.9,7.773-7.462,11.835
			c-5.088,8.145-10.414,16.757-15.832,25.72c-5.413,8.964-10.929,18.271-16.399,27.801c-2.776,4.741-5.413,9.608-8.147,14.444
			c-2.722,4.846-5.281,9.774-7.934,14.663c-1.322,2.443-2.551,4.969-3.83,7.447c-1.247,2.473-2.575,5.011-3.751,7.421
			c-2.334,4.875-4.347,9.98-6.198,15.101c-3.71,10.246-6.893,20.556-9.838,30.567c-5.845,20.049-10.691,38.968-14.718,55.21
			c-4.013,16.247-7.169,29.837-9.34,39.354c-2.127,9.517-3.343,14.955-3.343,14.955L154.321,477.067z"/>
	</g>
	<g>
		<path d="M49.527,168.946c0,0.001,0.072,0.071,0.037,0.033c-0.025-0.02,0.023,0.019,0.067,0.055
			c0.043,0.036,0.09,0.078,0.172,0.134c0.278,0.217,0.815,0.565,1.577,0.979c1.525,0.838,4.029,1.912,7.386,2.977
			c6.703,2.173,16.801,4.242,29.071,5.779c12.277,1.528,26.729,2.618,42.25,3.177c7.76,0.312,15.789,0.448,23.948,0.546
			c8.161,0.052,16.454,0.056,24.748-0.071l6.195-0.084l3.105-0.125l3.042-0.227c4.081-0.366,8.151-0.902,12.181-1.487
			c8.056-1.22,15.956-2.683,23.582-4.2c15.25-3.056,29.408-6.317,41.521-9.198c12.112-2.891,22.175-5.429,29.213-7.231
			c7.03-1.83,11.048-2.875,11.048-2.875s-3.997,1.122-10.992,3.084c-7.004,1.935-17.019,4.663-29.079,7.784
			c-12.062,3.11-26.164,6.64-41.385,9.991c-7.612,1.665-15.505,3.281-23.588,4.662c-4.047,0.667-8.136,1.284-12.285,1.735
			l-3.145,0.293l-3.104,0.183l-6.252,0.203c-8.306,0.283-16.619,0.435-24.803,0.537c-8.186,0.055-16.244,0.07-24.045-0.098
			c-15.602-0.27-30.173-1.092-42.642-2.406c-12.468-1.328-22.825-3.229-29.997-5.4c-3.589-1.066-6.38-2.184-8.288-3.181
			c-0.958-0.498-1.688-0.943-2.214-1.33c-0.125-0.086-0.25-0.184-0.354-0.268c-0.104-0.083-0.182-0.142-0.3-0.25
			c-0.162-0.152-0.245-0.229-0.245-0.229L49.527,168.946z"/>
	</g>
	<g>
		<path d="M185.999,109.626c0.006,0.06-0.01-0.048,0.035,0.16c0.041,0.165,0.142,0.457,0.346,0.839
			c0.387,0.769,1.2,1.887,2.433,3.168c2.479,2.57,6.673,5.742,12.065,8.98c5.383,3.263,11.953,6.623,19.131,9.927
			c3.598,1.635,7.333,3.292,11.171,4.879c3.828,1.61,7.751,3.165,11.685,4.698c3.934,1.506,7.974,2.633,11.989,3.701
			c4.021,1.035,7.999,1.985,11.862,2.852c7.724,1.736,14.97,3.205,21.187,4.427c12.438,2.434,20.766,3.87,20.766,3.87
			s-8.348-1.312-20.823-3.56c-6.237-1.129-13.507-2.491-21.266-4.113c-3.879-0.81-7.878-1.702-11.927-2.68
			c-4.035-1.009-8.163-2.095-12.146-3.553c-15.856-5.871-31.477-12.522-42.492-18.995c-5.516-3.208-9.864-6.376-12.567-9.093
			c-1.348-1.363-2.292-2.593-2.815-3.586c-0.268-0.488-0.433-0.913-0.522-1.242c-0.091-0.286-0.115-0.662-0.108-0.601
			L185.999,109.626z"/>
	</g>
	<g>
		<path d="M318.231,422.722c0,0-1.653-3.929-4.213-10.899c-2.556-6.972-6.035-16.995-9.625-29.202
			c-3.591-12.204-7.311-26.592-10.296-42.216c-1.482-7.812-2.773-15.933-3.758-24.226c-0.259-2.072-0.478-4.156-0.678-6.249
			c-0.232-2.09-0.363-4.209-0.52-6.304c-0.171-2.099-0.199-4.231-0.306-6.35c-0.063-2.121-0.068-4.242-0.105-6.363
			c0.015-16.978,1.645-33.884,3.693-49.63c2.083-15.75,4.652-30.354,7.076-42.823c2.426-12.47,4.739-22.802,6.418-30.018
			c1.683-7.216,2.749-11.313,2.749-11.313s-1.036,4.105-2.665,11.333c-1.625,7.228-3.862,17.574-6.195,30.057
			c-2.331,12.482-4.791,27.098-6.755,42.845c-1.932,15.742-3.433,32.637-3.321,49.545c0.053,2.11,0.072,4.225,0.151,6.33
			c0.122,2.105,0.163,4.201,0.35,6.304c0.174,2.11,0.316,4.191,0.564,6.272c0.214,2.083,0.447,4.158,0.721,6.22
			c1.041,8.254,2.388,16.336,3.922,24.109c3.091,15.547,6.903,29.859,10.57,41.994c3.668,12.138,7.209,22.099,9.803,29.019
			c2.6,6.921,4.261,10.788,4.261,10.788L318.231,422.722z"/>
	</g>
	<g>
		<line fill="none" x1="233.93" y1="128.445" x2="233.93" y2="128.445"/>
	</g>
</g>
</svg>
