<?xml version="1.0" encoding="utf-8"?>
<!-- Generator: Adobe Illustrator 16.0.4, SVG Export Plug-In . SVG Version: 6.00 Build 0)  -->
<!DOCTYPE svg PUBLIC "-//W3C//DTD SVG 1.1//EN" "http://www.w3.org/Graphics/SVG/1.1/DTD/svg11.dtd">
<svg version="1.1" xmlns="http://www.w3.org/2000/svg" xmlns:xlink="http://www.w3.org/1999/xlink" x="0px" y="0px" width="370px"
	 height="480px" viewBox="0 0 370 480" enable-background="new 0 0 370 480" xml:space="preserve">
<g id="Layer_1" display="none">
	
		<ellipse display="inline" fill="#FFFFFF" stroke="#000000" stroke-width="0.25" stroke-miterlimit="10" cx="185" cy="294.833" rx="185" ry="185.167"/>
	<g display="inline">
		<g>
			<path d="M358.001,424.833c3.225,0,3.225-5,0-5S354.776,424.833,358.001,424.833L358.001,424.833z"/>
		</g>
	</g>
	<g display="inline">
		<g>
			<path d="M308.668,466.167c3.225,0,3.225-5,0-5S305.443,466.167,308.668,466.167L308.668,466.167z"/>
		</g>
	</g>
	<g display="inline">
		<g>
			<path d="M333.335,439.5c3.225,0,3.225-5,0-5S330.11,439.5,333.335,439.5L333.335,439.5z"/>
		</g>
	</g>
	<g display="inline">
		<g>
			<path d="M388.668,362.833c3.225,0,3.225-5,0-5S385.443,362.833,388.668,362.833L388.668,362.833z"/>
		</g>
	</g>
	<g display="inline">
		<g>
			<path d="M406.668,266.833c3.225,0,3.225-5,0-5S403.443,266.833,406.668,266.833L406.668,266.833z"/>
		</g>
	</g>
	<g display="inline">
		<g>
			<path d="M339.335,123.5c3.225,0,3.225-5,0-5S336.11,123.5,339.335,123.5L339.335,123.5z"/>
		</g>
	</g>
	<g display="inline">
		<g>
			<path d="M187.335,65.5c3.225,0,3.225-5,0-5C184.111,60.5,184.111,65.5,187.335,65.5L187.335,65.5z"/>
		</g>
	</g>
	<g display="inline">
		<g>
			<path d="M2.668,137.5c3.224,0,3.224-5,0-5S-0.556,137.5,2.668,137.5L2.668,137.5z"/>
		</g>
	</g>
	<g display="inline">
		<g>
			<path d="M-27.332,362.167c3.224,0,3.224-5,0-5S-30.556,362.167-27.332,362.167L-27.332,362.167z"/>
		</g>
	</g>
	<g display="inline">
		<g>
			<path d="M152.668,518.833c3.224,0,3.224-5,0-5S149.444,518.833,152.668,518.833L152.668,518.833z"/>
		</g>
	</g>
</g>
<g id="Layer_2">
	<g>
		<line fill="none" x1="233.93" y1="128.445" x2="233.93" y2="128.445"/>
	</g>
	<g>
		<path d="M318.424,159.045c0,0-0.255,0.186-0.749,0.546c-0.469,0.332-1.164,0.823-2.071,1.465c-1.79,1.248-4.39,3.021-7.725,5.192
			c-6.672,4.338-16.276,10.291-28.263,16.668c-11.985,6.357-26.367,13.187-42.704,18.634c-8.163,2.711-16.82,5.073-25.915,6.557
			c-1.136,0.182-2.274,0.363-3.415,0.545c-1.154,0.137-2.31,0.275-3.468,0.413c-2.297,0.32-4.675,0.397-7.01,0.59l-0.22,0.016
			c0,0-0.399,0.032-0.278,0.019l-0.102,0.002l-0.407,0.008l-0.813,0.016l-1.63,0.032l-3.262,0.063l-6.987-0.095
			c-18.204-0.628-35.848-3.831-51.923-7.961c-16.084-4.146-30.627-9.241-42.853-14.08c-12.226-4.847-22.142-9.448-28.994-12.824
			c-6.854-3.375-10.653-5.511-10.653-5.511s4.02,1.688,11.188,4.248c7.163,2.561,17.485,5.978,30.031,9.354
			c12.54,3.369,27.319,6.7,43.243,8.905c15.9,2.2,33.001,3.258,49.62,1.912l6.047-0.607l3.233-0.435l1.615-0.218l0.807-0.108
			l0.403-0.054l0.102-0.014c0.188-0.018-0.144,0.01-0.076,0l0.184-0.034c1.957-0.389,3.899-0.643,5.84-1.139l2.898-0.665
			c0.962-0.263,1.922-0.526,2.88-0.788c7.658-2.11,15.073-5.009,22.101-8.219c14.067-6.436,26.595-14.103,36.983-21.143
			c10.395-7.056,18.678-13.517,24.322-18.119c2.823-2.304,4.985-4.15,6.42-5.398c0.697-0.616,1.232-1.089,1.593-1.407
			c0.327-0.299,0.497-0.454,0.497-0.454L318.424,159.045z"/>
	</g>
	<g>
		<path d="M2,348.047c0,0,1.12-0.12,3.22-0.345c2.134-0.247,5.282-0.648,9.284-1.248c7.998-1.212,19.438-3.204,32.885-6.657
			c6.717-1.736,13.932-3.847,21.397-6.494c7.458-2.652,15.178-5.838,22.751-9.835c7.553-4.001,14.985-8.847,21.372-14.917
			c6.342-6.059,11.59-13.489,13.951-21.96c0.62-2.109,1.039-4.232,1.319-6.502l0.175-1.582l0.093-1.649
			c0.084-1.1,0.033-2.208,0.042-3.313c-0.146-4.427-0.846-8.86-2.052-13.159c-1.172-4.309-2.791-8.49-4.677-12.506
			c-1.879-4.02-4.017-7.883-6.321-11.569c-4.604-7.382-9.771-14.108-14.985-20.219c-5.221-6.111-10.503-11.609-15.538-16.524
			c-10.087-9.822-19.153-17.335-25.604-22.44c-6.46-5.101-10.331-7.787-10.331-7.787s3.976,2.525,10.651,7.364
			c6.666,4.846,16.052,11.995,26.601,21.457c5.267,4.736,10.817,10.058,16.357,16.028c5.533,5.973,11.07,12.592,16.119,19.992
			c2.526,3.696,4.905,7.604,7.044,11.728c2.145,4.12,4.041,8.467,5.493,13.048c1.483,4.565,2.463,9.384,2.826,14.32
			c0.045,1.236,0.146,2.476,0.106,3.722l-0.031,1.872l-0.135,1.929c-0.195,2.405-0.584,4.935-1.2,7.366
			c-0.56,2.457-1.42,4.83-2.347,7.165c-1.003,2.3-2.095,4.567-3.4,6.692c-2.535,4.307-5.683,8.151-9.045,11.666
			c-6.799,6.981-14.605,12.479-22.455,17.04c-7.872,4.553-15.833,8.199-23.501,11.267c-7.673,3.062-15.065,5.537-21.942,7.604
			c-13.765,4.108-25.459,6.614-33.687,8.191c-4.117,0.78-7.372,1.324-9.609,1.673c-1.126,0.168-1.99,0.298-2.573,0.385
			c-0.605,0.083-0.918,0.126-0.918,0.126L2,348.047z"/>
	</g>
	<g>
		<path d="M152.89,476.449c0,0,0.489-1.332,1.407-3.828c0.904-2.525,2.208-6.25,3.773-11.028c3.129-9.554,7.343-23.321,11.43-40.092
			c4.058-16.764,8.053-36.552,10.13-57.992c1.025-10.713,1.552-21.838,1.183-33.105c-0.386-11.257-1.628-22.688-4.422-33.742
			c-1.412-5.523-3.159-10.934-5.44-16.144c-1.108-2.545-2.42-5.085-3.763-7.557c-1.383-2.462-2.836-4.881-4.381-7.233
			c-6.18-9.421-13.439-17.94-20.91-25.732c-7.483-7.793-15.226-14.85-22.784-21.285c-7.565-6.43-14.967-12.224-21.922-17.408
			C83.27,190.942,71.159,183,62.596,177.592c-8.571-5.401-13.614-8.253-13.614-8.253s5.103,2.741,13.794,7.959
			c8.684,5.225,20.975,12.91,35.151,22.991c7.083,5.045,14.634,10.695,22.374,16.99c7.733,6.301,15.677,13.231,23.405,20.938
			c7.716,7.708,15.265,16.176,21.809,25.694c3.266,4.771,6.247,9.764,8.765,15.15c2.462,5.308,4.41,10.914,5.985,16.574
			c3.131,11.354,4.652,23.057,5.295,34.559c0.626,11.514,0.331,22.859-0.477,33.777c-1.644,21.848-5.263,41.983-9.007,59.054
			c-3.773,17.075-7.739,31.105-10.707,40.874c-1.485,4.885-2.729,8.704-3.6,11.31c-0.899,2.618-1.378,4.015-1.378,4.015
			L152.89,476.449z"/>
	</g>
	<g>
		<path d="M185.968,109.416c0,0,0.043,0.185,0.126,0.542c0.075,0.35,0.18,0.864,0.295,1.536c0.23,1.343,0.503,3.317,0.652,5.84
			c0.142,2.522,0.166,5.598-0.174,9.1c-0.335,3.498-1.029,7.429-2.338,11.559c-1.301,4.126-3.229,8.451-5.926,12.612
			c-2.675,4.173-6.135,8.152-10.197,11.691c-4.074,3.527-8.728,6.637-13.756,9.18c-5.052,2.546-10.477,4.457-16.027,5.82
			c-11.121,2.719-22.62,3.282-33.27,2.839c-10.67-0.457-20.546-1.915-28.911-3.553c-8.371-1.644-15.243-3.48-20.014-4.875
			c-4.771-1.401-7.445-2.367-7.445-2.367s2.685,0.936,7.47,2.283c4.785,1.341,11.672,3.099,20.049,4.647
			c8.372,1.542,18.244,2.886,28.875,3.222c10.611,0.324,22.036-0.371,32.998-3.182c5.467-1.407,10.804-3.359,15.717-5.904
			c4.923-2.56,9.457-5.662,13.4-9.15c3.931-3.501,7.253-7.407,9.806-11.484c2.574-4.065,4.394-8.272,5.612-12.282
			c1.225-4.012,1.857-7.827,2.145-11.22c0.293-3.396,0.237-6.376,0.074-8.814c-0.171-2.439-0.454-4.339-0.688-5.617
			c-0.117-0.639-0.221-1.125-0.294-1.446c-0.075-0.312-0.114-0.474-0.114-0.474L185.968,109.416z"/>
	</g>
	<g>
		<path d="M314.978,425.795c0,0-0.25-1.445-0.888-4.187c-0.636-2.731-1.652-6.728-3.166-11.756
			c-3.022-10.05-8.1-24.232-15.895-40.496c-7.774-16.259-18.302-34.58-31.618-52.792c-6.646-9.108-13.951-18.207-21.838-27.043
			c-1.999-2.184-4.006-4.377-6.019-6.577c-2.04-2.174-4.141-4.304-6.216-6.465c-4.163-4.316-8.623-8.324-13.226-12.203
			c-9.214-7.73-19.005-14.767-28.845-21.368c-9.852-6.591-19.789-12.716-29.526-18.436c-19.486-11.426-38.153-21.257-54.291-29.393
			c-16.145-8.128-29.775-14.546-39.355-18.951c-9.581-4.404-15.115-6.79-15.115-6.79s5.546,2.357,15.151,6.711
			c9.603,4.355,23.269,10.703,39.459,18.75c16.185,8.053,34.909,17.79,54.471,29.125c9.775,5.673,19.755,11.753,29.658,18.305
			c9.892,6.562,19.742,13.562,29.036,21.277c4.632,3.861,9.169,7.897,13.363,12.201c2.092,2.158,4.21,4.283,6.268,6.453
			c2.03,2.196,4.055,4.387,6.071,6.567c7.959,8.824,15.338,17.917,22.057,27.027c13.464,18.213,24.135,36.563,32.035,52.868
			c7.92,16.31,13.104,30.554,16.204,40.673c1.553,5.062,2.602,9.094,3.26,11.86c0.657,2.758,0.932,4.281,0.932,4.281
			L314.978,425.795z"/>
	</g>
</g>
</svg>
